<svg width="1280" height="720" xmlns="http://www.w3.org/2000/svg" xmlns:xlink="http://www.w3.org/1999/xlink" overflow="hidden"><defs><clipPath id="clip0"><rect x="0" y="0" width="1280" height="720"/></clipPath></defs><g clip-path="url(#clip0)"><rect x="0" y="0" width="1280" height="720" fill="#FFFFFF"/><path d="M256.167 378 329.833 378C331.03 378 332 378.97 332 380.167L332 391 254 391 254 380.167C254 378.97 254.97 378 256.167 378Z" stroke="#000000" stroke-width="4" stroke-miterlimit="8" fill="none" fill-rule="evenodd"/><path d="M267.434 361.458C267.594 360.132 268.006 357.744 268.399 357.216 269.551 355.669 270.973 354.389 272.259 352.975L274.19 350.855C274.994 349.971 275.627 348.847 276.603 348.204L279.016 346.614C283.63 339.854 276.231 350.203 283.359 342.373 285.375 340.157 284.397 341.382 286.254 338.662 287.269 331.974 287.309 333.041 286.254 322.227 286.192 321.594 285.577 321.19 285.289 320.637 284.932 319.951 284.646 319.223 284.324 318.516 282.996 309.763 284.547 318.966 283.359 313.745 283.16 312.871 282.194 311.594 282.876 311.094 283.545 310.604 284.163 312.155 284.806 312.685 284.967 313.215 284.929 313.88 285.289 314.275 286.089 315.155 287.658 315.39 288.667 315.866 292.352 317.6 288.72 316.631 293.975 317.456L296.871 318.516C297.354 318.693 297.864 318.797 298.319 319.047 298.962 319.4 299.567 319.857 300.249 320.107 301.027 320.392 301.871 320.4 302.662 320.637 303.643 320.931 305.557 321.697 305.557 321.697 306.04 322.051 306.533 322.387 307.005 322.758 307.66 323.271 308.237 323.909 308.935 324.348 309.377 324.625 309.901 324.701 310.383 324.878 312.957 329.119 309.579 323.995 312.796 327.529 313.206 327.979 313.39 328.63 313.761 329.119 314.198 329.695 314.726 330.179 315.209 330.71 316.357 334.491 314.729 329.919 317.139 333.89 317.421 334.355 317.394 334.981 317.622 335.481 317.881 336.051 318.328 336.501 318.587 337.071 318.971 337.915 320.405 342.16 320.517 342.903L321 346.083C320.839 349.794 320.92 353.528 320.517 357.216 320.432 358.001 319.922 358.659 319.552 359.337 318.955 360.43 317.622 362.518 317.622 362.518 317.193 364.403 317.083 365.761 315.692 367.289 314.871 368.19 313.897 369.007 312.796 369.41 306.845 371.589 310.917 370.414 300.249 371L280.946 370.47C276.928 370.274 280.055 369.914 276.603 368.879 275.505 368.551 274.351 368.526 273.224 368.349L270.329 367.289 268.881 366.759C268.399 366.229 267.812 365.792 267.434 365.168 266.544 363.703 267.273 362.783 267.434 361.458Z" fill="#ED7D31" fill-rule="evenodd"/><path d="M274.95 366.393C275.845 365.011 278.49 362.403 280.322 361.326 280.731 361.085 281.217 361.019 281.665 360.865L284.351 359.022C284.798 358.715 285.371 358.544 285.694 358.101 287.187 356.052 288.735 354.022 289.722 351.652 290.42 349.977 290.164 349.608 290.618 347.506 290.72 347.032 290.951 346.595 291.065 346.124 291.25 345.364 291.348 344.585 291.513 343.82 291.646 343.202 291.792 342.586 291.961 341.978 292.09 341.511 292.294 341.067 292.408 340.595L293.304 336.91C293.563 333.177 291.788 330 295.542 330 296.157 330 296.735 330.307 297.332 330.461 297.482 330.921 297.569 331.408 297.78 331.843 298.193 332.693 299.276 334.097 300.018 334.607 300.608 335.011 303.277 335.462 303.599 335.528 304.196 335.989 304.783 336.464 305.39 336.91 305.828 337.232 306.353 337.44 306.733 337.831 307.113 338.223 307.284 338.788 307.628 339.213 308.705 340.544 308.994 340.611 310.314 341.517 311.451 347.367 309.754 340.847 312.105 345.202 312.563 346.051 313 347.966 313 347.966 312.79 351.644 312.866 355.035 312.105 358.562 312.002 359.036 311.787 359.477 311.657 359.944 311.521 360.435 311.077 362.584 310.762 363.169 310.239 364.137 308.971 365.933 308.971 365.933 308.607 367.057 308.496 367.803 307.628 368.697 307.248 369.088 306.777 369.393 306.285 369.618 304.157 370.591 303.166 370.614 300.914 371 293.154 370.846 285.386 370.952 277.636 370.539 276.693 370.489 274.95 369.618 274.95 369.618 273.359 368.526 274.055 367.775 274.95 366.393Z" fill="#FFC000" fill-rule="evenodd"/><path d="M282.002 371.516C281.927 371.677 284.162 371.422 285.162 371.032 286.362 370.564 287.383 368.967 288.322 368.129 292.094 364.76 287.074 369.95 291.031 365.709 291.826 363.154 291.219 364.682 293.289 361.354L294.191 359.903C294.342 359.096 294.534 358.297 294.643 357.483 294.836 356.037 294.339 354.343 295.094 353.128 295.449 352.559 296.057 354.04 296.449 354.58 299.285 358.488 296.987 356.577 299.609 358.451L300.512 361.354 300.964 362.806C300.813 365.064 301.359 367.506 300.512 369.581 300.131 370.515 298.706 370.226 297.803 370.548 297.352 370.71 296.92 370.96 296.449 371.032L290.128 372C289.075 371.839 287.956 371.94 286.968 371.516 286.375 371.262 286.228 370.252 285.614 370.064 283.516 369.422 282.077 371.355 282.002 371.516Z" fill="#FFFF00" fill-rule="evenodd"/><path d="M269.167 365 316.833 365C318.03 365 319 365.97 319 367.167L319 378 267 378 267 367.167C267 365.97 267.97 365 269.167 365Z" stroke="#000000" stroke-width="4" stroke-miterlimit="8" fill="#FFFFFF" fill-rule="evenodd"/><path d="M185.457 458.284C197.19 431.099 235.649 406.28 254.654 391L331.244 391.076C349.953 404.564 384.636 427.093 398.526 460.001 403.698 484.521 364.866 514.602 362.834 536.174 363.044 543.578 363.528 545.979 362.79 553L223.309 553C223.97 548.931 224.14 544.876 223.81 536.68 224.603 518.87 180.037 482.227 185.457 458.284Z" stroke="#000000" stroke-width="4" stroke-miterlimit="8" fill="none" fill-rule="evenodd"/><path d="M283.912 393.304C283.197 394.163 283.376 395.58 283.376 396.742 283.376 403.559 283.489 410.134 284.448 416.797 284.587 417.76 284.806 418.707 284.984 419.662 285.163 421.763 285.38 423.861 285.52 425.965 285.737 429.21 285.781 432.467 286.056 435.706 286.154 436.849 286.843 439.643 287.129 440.863 286.771 447.548 286.712 454.259 286.056 460.918 285.989 461.603 285.205 461.99 284.984 462.637 284.481 464.118 284.73 465.911 283.912 467.221 283.555 467.794 283.128 468.325 282.84 468.94 282.412 469.856 281.997 472.095 281.768 472.952 281.613 473.532 281.523 474.153 281.232 474.671 280.972 475.134 280.517 475.435 280.16 475.817 279.981 476.39 279.779 476.955 279.624 477.536 279.421 478.293 279.378 479.104 279.088 479.828 278.834 480.461 278.373 480.974 278.015 481.547 276.668 485.867 278.486 480.542 276.407 484.985 276.155 485.525 276.094 486.148 275.871 486.704 273.884 491.661 275.52 486.683 274.263 490.715 274.084 492.243 273.985 493.784 273.727 495.299 273.626 495.893 273.302 496.425 273.191 497.018 272.943 498.342 272.874 499.699 272.655 501.029 272.338 502.947 271.583 506.759 271.583 506.759 271.086 512.601 270.568 514.936 271.583 521.084 271.695 521.762 272.367 522.187 272.655 522.803 272.908 523.343 272.9 524.004 273.191 524.522 273.451 524.985 273.947 525.246 274.263 525.668 274.665 526.206 274.88 526.9 275.335 527.387 277.12 529.295 276.59 527.941 278.552 529.106 279.678 529.775 280.615 530.782 281.768 531.398 284.923 533.084 283.154 532.274 287.129 533.69 287.665 533.881 288.173 534.22 288.737 534.263L296.242 534.836C296.956 535.027 297.678 535.193 298.386 535.409 298.929 535.575 299.443 535.851 299.994 535.982 301.055 536.234 302.138 536.364 303.211 536.555 306.606 536.364 310.567 537.998 313.396 535.982 317.323 533.184 313.026 529.481 311.252 528.533 310.746 528.263 310.179 528.151 309.643 527.96 309.107 527.578 308.658 526.991 308.035 526.814 306.559 526.393 300.149 525.446 297.85 525.095 297.314 524.904 296.787 524.681 296.242 524.522 294.82 524.108 293.351 523.874 291.953 523.376L288.737 522.23 287.129 521.657C286.414 521.084 285.616 520.613 284.984 519.938 281.411 516.118 286.592 520.129 282.304 517.073 281.947 516.309 281.442 515.605 281.232 514.781 280.675 512.6 280.223 504.196 280.16 503.321 280.28 502.296 280.677 496.465 281.768 495.299 282.125 494.917 282.524 494.575 282.84 494.153 283.85 492.803 284.251 491.71 284.984 490.142 285.047 489.675 285.551 484.919 286.056 483.839 286.283 483.355 286.771 483.075 287.129 482.693 288.476 478.372 286.658 483.698 288.737 479.255 288.99 478.714 289.02 478.076 289.273 477.536 289.561 476.92 290.025 476.414 290.345 475.817 292.076 472.579 290.578 474.421 292.489 472.379 292.668 471.805 292.735 471.177 293.025 470.66 293.285 470.196 293.92 470.019 294.097 469.514 294.479 468.426 294.398 467.21 294.634 466.075 294.756 465.486 294.991 464.929 295.17 464.356 296.353 451.705 296.338 454.225 295.17 433.414 295.102 432.208 294.319 431.161 294.097 429.976 293.919 429.021 293.801 428.051 293.561 427.111 293.264 425.946 292.847 424.819 292.489 423.673L291.953 421.954C291.501 395.846 300.957 388.743 287.665 391.585 283.854 392.399 284.627 392.444 283.912 393.304Z" stroke="#000000" stroke-width="4" stroke-miterlimit="8" fill="none" fill-rule="evenodd"/><path d="M192 444.5C192 439.806 236.1 436 290.5 436 344.9 436 389 439.806 389 444.5 389 449.194 344.9 453 290.5 453 236.1 453 192 449.194 192 444.5Z" stroke="#000000" stroke-width="4" stroke-miterlimit="8" fill="none" fill-rule="evenodd"/><path d="M333.016 445.457C327.965 447.886 305.058 449.426 281.854 448.897 258.649 448.368 243.933 445.971 248.984 443.543 252.548 441.829 265.3 440.489 281.657 440.107" stroke="#000000" stroke-width="4" stroke-miterlimit="8" fill="none" fill-rule="evenodd"/><path d="M14.2296 0.0801053C25.2083-0.186979 37.1395 0.232219 40.8787 1.01641 44.6179 1.8006 38.7491 2.65283 27.7704 2.91992 27.3793 2.92943 26.9844 2.93812 26.5862 2.94597" stroke="#000000" stroke-width="4" stroke-miterlimit="8" fill="none" fill-rule="evenodd" transform="matrix(1 0 0 -1 275 445)"/><path d="M21.7145 2.99991C9.84095 3.00817 0.119522 2.34332 0.00106222 1.51492-0.0808055 0.942414 4.51556 0.416586 11.8485 0.15957" stroke="#000000" stroke-width="4" stroke-miterlimit="8" fill="none" fill-rule="evenodd" transform="matrix(1 0 0 -1 270 446)"/><path d="M253 402C245.025 407.083 237.05 412.167 232.217 416 227.383 419.833 226.256 423.75 224 425" stroke="#000000" stroke-width="4" stroke-miterlimit="8" fill="none" fill-rule="evenodd"/><path d="M224 537 362.807 537" stroke="#000000" stroke-width="4" stroke-miterlimit="8" fill="none" fill-rule="evenodd"/><path d="M389.769 451.378C383.614 454.076 369.022 456.429 348.706 458" stroke="#000000" stroke-width="4" stroke-miterlimit="8" fill="none" fill-rule="evenodd"/><path d="M260.106 274.36 260.106 274.36C261.01 257.107 275.729 243.854 292.982 244.758L721.143 267.191 717.87 329.669 289.709 307.236C272.456 306.332 259.202 291.613 260.106 274.36Z" stroke="#000000" stroke-width="4" stroke-miterlimit="8" fill="#FFFFFF" fill-rule="evenodd"/><rect x="587" y="75" width="15" height="622" stroke="#000000" stroke-width="4" stroke-miterlimit="8" fill="#FFFFFF"/><rect x="503" y="695" width="184" height="15" stroke="#000000" stroke-width="4" stroke-miterlimit="8" fill="#FFFFFF"/><path d="M653.234 301.45 653.907 288.599C654.016 286.509 655.799 284.904 657.889 285.013L859.677 295.586 858.607 316.005 656.819 305.432C654.729 305.323 653.124 303.54 653.234 301.45Z" stroke="#000000" stroke-width="4" stroke-miterlimit="8" fill="#FFFFFF" fill-rule="evenodd"/><path d="M685.768 321.848 688.407 271.484C688.581 268.165 691.411 265.617 694.73 265.79L721.143 267.174 717.875 329.555 691.461 328.171C688.143 327.997 685.594 325.166 685.768 321.848Z" stroke="#000000" stroke-width="4" stroke-miterlimit="8" fill="#FFFFFF" fill-rule="evenodd"/><path d="M175 555 423 555" stroke="#000000" stroke-width="4" stroke-miterlimit="8" fill="none" fill-rule="evenodd"/><path d="M175 604 423 604" stroke="#000000" stroke-width="4" stroke-miterlimit="8" fill="none" fill-rule="evenodd"/><path d="M175 555 423.286 603.449" stroke="#000000" stroke-width="4" stroke-miterlimit="8" fill="none" fill-rule="evenodd"/><path d="M0 0 248.286 48.4489" stroke="#000000" stroke-width="4" stroke-miterlimit="8" fill="none" fill-rule="evenodd" transform="matrix(1 0 0 -1 175 603.449)"/><path d="M175 652 423 652" stroke="#000000" stroke-width="4" stroke-miterlimit="8" fill="none" fill-rule="evenodd"/><path d="M175 604 423.286 652.449" stroke="#000000" stroke-width="4" stroke-miterlimit="8" fill="none" fill-rule="evenodd"/><path d="M0 0 248.286 48.4489" stroke="#000000" stroke-width="4" stroke-miterlimit="8" fill="none" fill-rule="evenodd" transform="matrix(1 0 0 -1 175 652.449)"/><path d="M175 701 423 701" stroke="#000000" stroke-width="4" stroke-miterlimit="8" fill="none" fill-rule="evenodd"/><path d="M175 652 423.286 700.449" stroke="#000000" stroke-width="4" stroke-miterlimit="8" fill="none" fill-rule="evenodd"/><path d="M0 0 248.286 48.4489" stroke="#000000" stroke-width="4" stroke-miterlimit="8" fill="none" fill-rule="evenodd" transform="matrix(1 0 0 -1 175 700.449)"/><path d="M271.775 253.126 264.282 258.441 260 271.198 261.07 280.766 264.282 294.054 271.239 299.369 280.873 304.685 292.113 305.748 374 310 372.394 300.432 367.577 293.523 368.113 273.856 364.366 262.694 339.211 273.856 336 262.694 329.042 260.568 310.845 263.757 300.141 264.288 299.606 254.721 296.394 252.063 286.225 251 277.662 251 271.775 253.126Z" stroke="#000000" stroke-width="4" stroke-miterlimit="8" fill="#595959" fill-rule="evenodd"/><path d="M644.86 267.323C643.843 267.577 638.568 268.779 637.3 269.483 636.633 269.854 636.335 270.71 635.68 271.102 630.575 274.165 633.352 271.229 629.2 274.342 628.589 274.8 628.176 275.484 627.58 275.961 626.371 276.928 625.1 277.819 623.8 278.66 622.038 279.801 620.2 280.82 618.4 281.9L615.7 283.519C615.34 284.059 614.62 284.49 614.62 285.139 614.62 287.684 614.82 290.309 615.7 292.697 616.14 293.891 617.449 294.551 618.4 295.396 620.555 297.311 620.181 296.921 622.72 297.555 624.88 297.376 627.116 297.611 629.2 297.016 629.824 296.837 629.821 295.855 630.28 295.396 631.095 294.581 632.08 293.956 632.98 293.237 634.115 289.834 634.697 289.747 626.5 292.157 624.9 292.627 623.903 295.191 623.26 296.476 623.44 300.795 623.323 305.136 623.8 309.432 623.872 310.077 624.421 310.593 624.88 311.052 625.339 311.511 626.959 311.673 626.5 312.132 625.975 312.656 625.06 311.772 624.34 311.592 621.46 311.772 618.571 311.845 615.7 312.132 614.962 312.206 614.12 312.208 613.54 312.672 613.096 313.027 613.18 313.751 613 314.291 613.18 315.191 613.317 316.1 613.54 316.99 613.678 317.542 613.678 318.208 614.08 318.61 614.649 319.179 615.557 319.263 616.24 319.69 619.986 322.03 616.649 320.959 621.1 321.849 626.32 321.669 631.547 321.625 636.76 321.309 637.501 321.264 638.238 321.062 638.92 320.769 640.762 319.98 640.568 319.308 642.16 318.07 643.185 317.273 645.4 315.911 645.4 315.911 646.432 312.816 647.717 310.747 645.4 307.273 644.769 306.326 642.16 306.193 642.16 306.193 641.26 306.373 640.262 306.287 639.46 306.733 637.374 307.892 636.656 310.181 635.68 312.132 635.86 313.931 635.648 315.815 636.22 317.53 636.425 318.146 637.244 318.354 637.84 318.61 638.522 318.902 639.286 318.946 640 319.15 640.547 319.306 641.08 319.51 641.62 319.69 643.6 319.33 645.76 319.51 647.56 318.61 648.224 318.278 648.149 317.191 648.1 316.451 647.966 314.443 647.92 312.312 647.02 310.512 643.746 303.965 641.865 305.358 637.3 300.795 635.111 298.606 636.363 299.517 633.52 298.095 633.16 298.635 632.235 299.099 632.44 299.715 632.725 300.568 633.795 300.932 634.6 301.335 635.264 301.666 636.046 301.671 636.76 301.874 637.307 302.031 637.84 302.234 638.38 302.414 638.92 301.514 639.61 300.689 640 299.715 641.374 296.281 640.087 286.941 640 286.218 639.885 285.256 639.502 284.294 638.92 283.519 637.851 282.094 636.129 281.222 635.14 279.74 633.744 277.647 634.676 278.326 632.44 277.581 630.82 277.761 628.733 276.968 627.58 278.121 626.68 279.02 627.502 280.787 628.12 281.9 628.423 282.445 631.189 283.282 631.9 283.519 633.34 283.339 634.951 283.684 636.22 282.979 636.869 282.619 636.525 281.524 636.76 280.82 637.067 279.901 637.48 279.02 637.84 278.121 637.3 274.881 636.835 271.629 636.22 268.403 636.114 267.844 635.935 267.292 635.68 266.784 635.39 266.203 635.059 265.623 634.6 265.164 633.964 264.528 633.16 264.084 632.44 263.544 626.392 263.717 617.715 262.906 610.84 264.624 610.288 264.762 609.76 264.984 609.22 265.164 608.86 265.884 608.371 266.553 608.14 267.323 606.993 271.145 607.802 274.103 609.22 278.121 609.474 278.841 610.177 279.361 610.84 279.74 611.484 280.108 612.28 280.1 613 280.28 613.54 280.64 613.998 281.173 614.62 281.36 618.744 282.597 627.244 281.479 629.74 281.36 630.28 280.82 631.15 280.474 631.36 279.74 631.564 279.027 631.557 277.673 630.82 277.581L622.72 278.66C621.722 279.409 619.692 280.772 618.94 281.9 618.63 282.364 617.932 285.391 617.86 285.679 618.22 287.658 618.193 289.749 618.94 291.617 619.667 293.434 621.16 293.871 622.72 294.316 623.434 294.52 624.16 294.676 624.88 294.856 625.24 294.316 625.853 293.877 625.96 293.237 626.367 290.794 623.494 291.296 622.18 291.077 615.968 291.465 614.449 289.26 612.46 293.237 612.205 293.746 612.1 294.316 611.92 294.856 612.614 303.88 611.41 299.776 615.16 307.273 616.005 308.962 616.218 309.958 617.86 311.052 618.334 311.368 618.94 311.412 619.48 311.592 620.2 311.412 620.958 311.344 621.64 311.052 623.015 310.463 623.685 309.661 624.34 308.353 624.595 307.844 624.7 307.273 624.88 306.733 624.231 301.543 625.613 300.928 618.94 303.494 618.227 303.768 617.907 304.625 617.32 305.113 616.822 305.529 616.185 305.762 615.7 306.193 614.559 307.208 612.46 309.432 612.46 309.432 612.722 313.88 610.517 318.049 614.62 319.69 615.837 320.176 617.14 320.409 618.4 320.769 624.7 320.05 631.088 319.88 637.3 318.61 639.116 318.239 640.462 316.653 642.16 315.911 643.361 315.386 644.68 315.191 645.94 314.831 646.84 314.291 647.843 313.894 648.64 313.211 649.827 312.195 649.912 310.826 650.26 309.432 649.72 307.813 649.619 305.972 648.64 304.574 648.214 303.966 647.222 304.034 646.48 304.034 643.774 304.034 641.08 304.394 638.38 304.574 638.56 307.453 638.294 310.395 638.92 313.211 639.061 313.845 639.891 314.291 640.54 314.291 643.264 314.291 645.94 313.571 648.64 313.211 648.82 312.672 648.98 312.125 649.18 311.592 649.52 310.684 650.26 309.862 650.26 308.893 650.26 302.818 651.776 296.912 647.56 292.697 647.101 292.238 646.48 291.977 645.94 291.617 646.12 292.697 645.625 294.172 646.48 294.856 647.109 295.359 648.5 294.569 648.64 293.776 649.11 291.112 648.789 288.295 648.1 285.679 647.841 284.694 646.701 284.195 645.94 283.519 645.429 283.065 642.681 280.81 641.62 280.28 641.111 280.025 640.54 279.92 640 279.74 638.74 279.92 637.359 279.711 636.22 280.28 635.711 280.535 635.68 281.331 635.68 281.9 635.68 286.148 635.495 285.316 638.38 286.758 640.36 286.578 642.42 286.803 644.32 286.218 644.94 286.028 645.366 285.247 645.4 284.599 645.552 281.718 645.486 278.777 644.86 275.961 644.765 275.535 641.098 273.808 641.08 273.802 639.672 273.332 636.76 272.722 636.76 272.722 633.689 273.161 629.304 271.871 628.12 275.421 627.774 276.46 627.76 277.581 627.58 278.66 628.298 281.89 627.729 283.439 630.28 285.139 630.754 285.454 631.36 285.499 631.9 285.679 633.34 285.499 635.793 286.525 636.22 285.139 637.529 280.884 633.897 278.403 631.36 276.501 630.841 276.112 630.259 275.811 629.74 275.421 628.818 274.73 628.104 273.705 627.04 273.262 625.865 272.772 624.52 272.902 623.26 272.722 618.111 271.006 621.14 271.439 614.08 272.722 613.9 273.262 613.54 273.772 613.54 274.342 613.54 279.488 612.656 281.556 615.7 284.599 616.515 285.414 617.585 285.944 618.4 286.758 621.646 290.004 615.917 287.083 622.72 291.617 623.26 291.977 624.989 292.697 624.34 292.697 623.535 292.697 622.9 291.977 622.18 291.617 620.74 291.977 619.076 291.846 617.86 292.697 617.066 293.252 617.087 294.477 616.78 295.396 616.399 296.54 615.914 299.185 615.7 300.255 616.604 303.568 616.21 305.993 618.94 307.813 619.414 308.128 620.02 308.173 620.56 308.353 623.62 308.173 626.864 308.872 629.74 307.813 630.808 307.419 630.82 304.574 630.82 304.574 630.546 303.751 630.374 301.437 628.66 303.494 628.039 304.238 627.865 305.267 627.58 306.193 627.144 307.612 626.5 310.512 626.5 310.512 626.68 312.312 626.327 314.248 627.04 315.911 627.629 317.284 629.31 309.533 627.58 316.451 627.94 317.71 627.856 319.195 628.66 320.23 630.281 322.313 636.394 320.852 637.3 320.769 638.02 319.87 639.096 319.163 639.46 318.07 640.671 314.438 639.575 305.442 638.92 302.954 638.775 302.404 637.84 302.594 637.3 302.414 636.76 302.594 636.083 302.552 635.68 302.954 635.278 303.356 635.089 304.007 635.14 304.574 635.454 308.021 636.22 311.412 636.76 314.831 638.38 314.291 640.145 314.072 641.62 313.211 642.397 312.758 642.654 311.735 643.24 311.052 643.737 310.472 644.32 309.972 644.86 309.432 647.407 303.491 647.607 304.561 645.94 295.396 645.803 294.645 644.956 294.2 644.32 293.776 643.846 293.461 642.131 293.237 642.7 293.237 643.442 293.237 644.14 293.597 644.86 293.776 651.042 287.596 650.62 290.247 648.1 278.66 647.938 277.914 647.106 277.479 646.48 277.041 645.291 276.209 644.01 275.505 642.7 274.881 640.225 273.703 635.14 271.642 635.14 271.642 630.82 272.182 626.243 271.699 622.18 273.262 620.957 273.732 621.1 275.731 621.1 277.041 621.1 286.943 619.287 285.794 623.8 287.298 625.96 287.118 629.131 288.596 630.28 286.758 631.724 284.449 630.418 281.096 629.2 278.66 627.798 275.858 623.565 275.773 621.1 275.421 618.94 275.781 616.608 275.584 614.62 276.501 613.946 276.812 614.08 277.918 614.08 278.66 614.08 284 613.081 285.736 616.78 288.378 617.243 288.709 617.86 288.738 618.4 288.918 620.56 288.738 622.811 289.024 624.88 288.378 629.116 287.054 626.378 281.235 625.42 279.2 624.929 278.158 623.728 277.6 622.72 277.041 622.03 276.657 617.557 276.001 617.32 275.961 614.26 276.141 611.146 275.9 608.14 276.501 607.391 276.651 607.009 277.534 606.52 278.121 605.926 278.833 604.046 282.063 603.82 282.439 604.18 286.398 604.426 290.369 604.9 294.316 604.968 294.881 605.134 295.456 605.44 295.936 606.406 297.454 607.182 299.257 608.68 300.255L610.3 301.335C611.02 301.155 612.015 301.388 612.46 300.795 612.802 300.339 612.478 299.287 611.92 299.175 611.131 299.017 610.48 299.895 609.76 300.255 609.58 301.155 609.419 302.058 609.22 302.954 608.516 306.123 607.343 308.379 609.22 312.132 609.71 313.111 611.38 312.492 612.46 312.672 617.68 312.492 623.021 313.264 628.12 312.132 629.066 311.921 627.661 310.177 627.04 309.432 626.676 308.995 625.943 309.117 625.42 308.893 624.68 308.576 623.98 308.173 623.26 307.813 621.28 308.173 619.265 308.374 617.32 308.893 614.751 309.577 614.772 310.647 613 312.672 612.497 313.246 611.92 313.751 611.38 314.291 611.92 316.99 610.827 320.699 613 322.389 615.136 324.05 619.259 323.832 621.1 321.849 622.711 320.115 620.953 317.006 620.02 314.831 619.728 314.149 618.569 314.509 617.86 314.291 610.765 312.109 615.408 313.153 610.3 312.132 606.679 309.718 607.549 309.826 600.04 311.592 599.486 311.722 599.68 312.672 599.5 313.211 599.68 314.831 599.165 316.695 600.04 318.07 600.633 319.002 606.463 319.604 607.06 319.69 612.1 319.51 617.159 319.62 622.18 319.15 622.982 319.075 623.6 318.387 624.34 318.07 624.863 317.846 625.42 317.71 625.96 317.53 627.587 311.024 626.665 312.501 627.58 317.53 627.682 318.09 627.865 318.641 628.12 319.15 629.268 321.445 629.188 320.767 631.9 321.309 636.674 321.082 642.043 323.374 644.86 319.15 645.176 318.676 645.22 318.07 645.4 317.53 645.22 315.551 645.342 313.52 644.86 311.592 644.722 311.04 644.723 313.614 644.32 313.211 643.351 312.242 643.24 310.692 642.7 309.432 642.354 307.704 642.095 305.556 641.08 304.034 639.801 302.116 638.2 300.435 636.76 298.635 636.04 297.735 635.415 296.751 634.6 295.936 633.52 294.856 632.375 293.838 631.36 292.697 630.929 292.212 630.808 291.454 630.28 291.077 629.491 290.514 628.411 290.496 627.58 289.997 626.592 289.405 625.78 288.558 624.88 287.838 624.7 288.378 624.269 288.893 624.34 289.458 624.525 290.939 625.663 292.99 627.04 293.776 627.684 294.145 628.48 294.136 629.2 294.316 630.1 294.136 631.122 294.263 631.9 293.776 634.925 291.887 633.598 286.917 632.98 284.599 632.714 283.6 629.736 283.113 629.2 282.979 628.3 283.159 627.149 282.87 626.5 283.519 624.507 285.512 625.814 291.094 625.96 292.697 627.04 292.517 628.382 292.884 629.2 292.157 630.225 291.246 630.873 289.747 630.82 288.378 630.57 281.873 630.917 279.024 626.5 276.501 626.006 276.219 625.42 276.141 624.88 275.961 622.9 276.501 620.862 276.86 618.94 277.581 617.957 277.949 617.13 278.644 616.24 279.2 614.235 280.453 614.784 280.116 613 281.9 613.18 282.439 613.031 283.265 613.54 283.519 614.049 283.774 615.116 283.547 615.16 282.979 615.328 280.796 615.059 278.459 614.08 276.501 612.042 272.427 611.129 273.946 608.68 272.722 608.1 272.432 607.6 272.002 607.06 271.642 605.44 271.822 602.686 270.627 602.2 272.182 600.893 276.364 604.878 281.005 607.06 284.059 608.618 288.732 607.353 285.885 609.22 288.918 610.32 290.705 611.296 292.57 612.46 294.316 612.82 294.856 613.081 295.477 613.54 295.936 613.999 296.395 614.62 296.656 615.16 297.016 615.547 296.983 622.522 297.807 623.26 294.856 623.483 293.966 622.9 293.057 622.72 292.157 620.56 292.517 618.317 292.544 616.24 293.237 615.516 293.478 615.109 294.27 614.62 294.856 612.686 297.177 614.218 295.661 613 298.095 612.71 298.676 612.28 299.175 611.92 299.715 611.74 301.155 611.64 302.606 611.38 304.034 610.718 307.672 608.238 305.94 611.38 312.672 611.862 313.703 613.504 313.528 614.62 313.751 616.218 314.071 617.86 314.111 619.48 314.291 624.16 314.111 628.887 314.437 633.52 313.751 634.083 313.668 634.06 312.701 634.06 312.132 634.06 311.037 633.894 309.921 633.52 308.893 633.161 307.906 632.403 307.114 631.9 306.193 631.322 305.133 630.729 304.075 630.28 302.954 628.537 298.596 631.067 302.784 628.66 299.175 627.205 300.629 622.881 304.123 627.58 306.733 630.26 308.221 633.7 306.373 636.76 306.193 637.66 305.653 638.718 305.316 639.46 304.574 640.202 303.832 640.45 302.714 641.08 301.874 641.538 301.264 642.16 300.795 642.7 300.255L644.32 295.396 644.86 293.776C645.22 291.077 645.12 288.275 645.94 285.679 646.247 284.708 647.339 284.195 648.1 283.519 650.537 281.354 650.798 281.361 653.5 279.74 653.32 279.2 653.48 278.352 652.96 278.121 651.634 277.531 650.068 277.84 648.64 277.581 648.08 277.479 647.579 277.147 647.02 277.041 643.793 276.426 637.3 275.421 637.3 275.421 636.76 275.061 636.277 274.597 635.68 274.342 633.375 273.354 626.412 273.294 625.96 273.262 624.143 272.656 624.048 272.71 622.18 271.642 621.617 271.32 621.176 270.768 620.56 270.563 619.521 270.216 618.394 270.237 617.32 270.023 614.183 269.396 616.206 269.483 614.08 269.483" stroke="#000000" stroke-width="0.666667" stroke-miterlimit="8" fill="none" fill-rule="evenodd"/></g></svg>