<svg width="1280" height="720" xmlns="http://www.w3.org/2000/svg" xmlns:xlink="http://www.w3.org/1999/xlink" overflow="hidden"><defs><clipPath id="clip0"><rect x="0" y="0" width="1280" height="720"/></clipPath></defs><g clip-path="url(#clip0)"><rect x="0" y="0" width="1280" height="720" fill="#FFFFFF"/><path d="M204 285 392 285C394.761 285 397 287.239 397 290L397 315 199 315 199 290C199 287.239 201.239 285 204 285Z" stroke="#000000" stroke-width="4" stroke-miterlimit="8" fill="none" fill-rule="evenodd"/><path d="M232.108 243.939C232.519 240.736 233.571 234.964 234.575 233.69 237.52 229.95 241.152 226.857 244.441 223.44L249.374 218.316C251.429 216.18 253.047 213.463 255.54 211.91L261.706 208.066C273.499 191.732 254.589 216.74 272.806 197.817 277.959 192.464 275.459 195.423 280.205 188.849 282.798 172.687 282.901 175.266 280.205 149.133 280.047 147.602 278.474 146.626 277.739 145.289 276.826 143.631 276.094 141.873 275.272 140.165 271.878 119.01 275.842 141.251 272.806 128.634 272.297 126.522 269.828 123.436 271.572 122.228 273.283 121.044 274.861 124.791 276.505 126.072 276.916 127.353 276.819 128.96 277.739 129.915 279.784 132.04 283.792 132.61 286.371 133.759 295.788 137.951 286.507 135.609 299.937 137.602L307.337 140.165C308.57 140.592 309.874 140.842 311.037 141.446 312.681 142.3 314.226 143.404 315.97 144.008 317.958 144.697 320.114 144.716 322.136 145.289 324.644 146 329.536 147.852 329.536 147.852 330.769 148.706 332.029 149.519 333.235 150.414 334.908 151.655 336.384 153.198 338.168 154.257 339.297 154.927 340.635 155.111 341.868 155.539 348.445 165.788 339.813 153.404 348.034 161.944 349.083 163.033 349.552 164.605 350.501 165.788 351.618 167.18 352.968 168.35 354.201 169.631 357.133 178.77 352.975 167.721 359.134 177.318 359.855 178.442 359.786 179.954 360.367 181.162 361.03 182.539 362.171 183.628 362.834 185.005 363.815 187.044 367.479 197.304 367.767 199.098L369 206.785C368.589 215.753 368.796 224.775 367.767 233.69 367.548 235.586 366.246 237.177 365.3 238.814 363.775 241.455 360.367 246.501 360.367 246.501 359.271 251.056 358.99 254.338 355.434 258.032 353.338 260.209 350.847 262.183 348.034 263.156 332.825 268.423 343.232 265.584 315.97 267L266.639 265.719C256.373 265.245 264.363 264.375 255.54 261.875 252.735 261.081 249.785 261.021 246.907 260.594L239.508 258.032 235.808 256.751C234.575 255.47 233.075 254.415 232.108 252.907 229.835 249.365 231.697 247.142 232.108 243.939Z" fill="#ED7D31" fill-rule="evenodd"/><path d="M251.387 255.764C253.637 252.393 260.281 246.032 264.885 243.404 265.915 242.817 267.135 242.655 268.26 242.281L275.009 237.787C276.134 237.037 277.573 236.62 278.384 235.539 282.136 230.542 286.027 225.591 288.507 219.809 290.26 215.723 289.616 214.824 290.757 209.697 291.014 208.54 291.594 207.475 291.882 206.326 292.346 204.473 292.592 202.572 293.007 200.708 293.342 199.2 293.707 197.698 294.132 196.213 294.457 195.075 294.969 193.992 295.257 192.843L297.506 183.854C298.157 174.748 293.697 167 303.131 167 304.677 167 306.13 167.749 307.63 168.124 308.005 169.247 308.225 170.435 308.755 171.494 309.793 173.567 312.513 176.993 314.379 178.236 315.861 179.223 322.567 180.321 323.378 180.483 324.878 181.607 326.352 182.766 327.877 183.854 328.977 184.639 330.296 185.146 331.252 186.101 332.208 187.056 332.636 188.434 333.502 189.472 336.208 192.716 336.933 192.88 340.251 195.09 343.108 209.358 338.842 193.456 344.75 204.079 345.902 206.149 347 210.82 347 210.82 346.472 219.789 346.664 228.062 344.75 236.663 344.493 237.819 343.951 238.895 343.625 240.034 343.283 241.231 342.169 246.473 341.376 247.899 340.063 250.26 336.876 254.64 336.876 254.64 335.961 257.382 335.682 259.204 333.502 261.382 332.546 262.337 331.363 263.081 330.127 263.629 324.78 266.003 322.288 266.058 316.629 267 297.131 266.625 277.611 266.883 258.136 265.876 255.768 265.754 251.387 263.629 251.387 263.629 247.389 260.966 249.138 259.135 251.387 255.764Z" fill="#FFC000" fill-rule="evenodd"/><path d="M269.005 267.854C268.815 268.236 274.462 267.631 276.989 266.708 280.02 265.6 282.6 261.818 284.972 259.831 294.5 251.853 281.819 264.146 291.816 254.101 293.823 248.049 292.289 251.668 297.519 243.787L299.8 240.348C300.18 238.438 300.666 236.546 300.94 234.618 301.427 231.194 300.171 227.182 302.081 224.304 302.976 222.955 304.512 226.462 305.502 227.742 312.668 236.999 306.862 232.473 313.486 236.91L315.767 243.787 316.908 247.225C316.528 252.573 317.906 258.357 315.767 263.27 314.804 265.483 311.205 264.798 308.924 265.562 307.784 265.944 306.693 266.537 305.502 266.708L289.535 269C286.873 268.618 284.047 268.857 281.551 267.854 280.053 267.252 279.68 264.861 278.129 264.416 272.829 262.894 269.195 267.472 269.005 267.854Z" fill="#FFFF00" fill-rule="evenodd"/><path d="M236.167 253 359.833 253C362.687 253 365 255.313 365 258.167L365 284 231 284 231 258.167C231 255.313 233.313 253 236.167 253Z" stroke="#000000" stroke-width="4" stroke-miterlimit="8" fill="#FFFFFF" fill-rule="evenodd"/><path d="M26.1565 478.226C55.8161 412.278 153.043 352.069 201.087 315L394.711 315.185C442.007 347.904 529.688 402.56 564.803 482.391 577.876 541.875 479.707 614.849 474.57 667.182 475.102 685.142 476.325 690.967 474.46 708L121.847 708C123.519 698.128 123.946 688.291 123.114 668.41 125.117 625.203 12.4524 536.309 26.1565 478.226Z" stroke="#000000" stroke-width="4" stroke-miterlimit="8" fill="none" fill-rule="evenodd"/><path d="M274.867 320.586C273.048 322.67 273.503 326.105 273.503 328.922 273.503 345.452 273.791 361.393 276.232 377.549 276.585 379.883 277.142 382.18 277.597 384.496 278.051 389.59 278.603 394.676 278.961 399.778 279.513 407.645 279.624 415.543 280.326 423.397 280.573 426.169 282.328 432.943 283.055 435.901 282.145 452.11 281.995 468.382 280.326 484.528 280.154 486.189 278.157 487.127 277.597 488.696 276.315 492.285 276.948 496.633 274.867 499.811 273.958 501.2 272.872 502.485 272.138 503.979 271.048 506.2 269.992 511.627 269.409 513.704 269.014 515.113 268.785 516.617 268.045 517.872 267.383 518.996 266.225 519.725 265.316 520.651 264.861 522.041 264.346 523.411 263.951 524.819 263.436 526.655 263.326 528.622 262.587 530.377 261.941 531.911 260.767 533.155 259.858 534.545 256.428 545.021 261.054 532.108 255.764 542.881 255.121 544.19 254.966 545.702 254.4 547.049 249.34 559.068 253.506 546.998 250.306 556.774 249.851 560.479 249.597 564.215 248.941 567.889 248.684 569.33 247.859 570.621 247.577 572.057 246.946 575.268 246.771 578.557 246.212 581.782 245.406 586.433 243.483 595.676 243.483 595.676 242.218 609.841 240.9 615.502 243.483 630.409 243.768 632.053 245.479 633.084 246.212 634.577 246.856 635.887 246.837 637.489 247.577 638.745 248.239 639.868 249.502 640.501 250.306 641.524 251.33 642.828 251.875 644.511 253.035 645.692 257.578 650.318 256.228 647.035 261.222 649.86 264.089 651.482 266.476 653.924 269.409 655.417 277.44 659.506 272.938 657.541 283.055 660.975 284.419 661.438 285.714 662.259 287.148 662.364L306.252 663.753C308.071 664.216 309.907 664.618 311.71 665.143 313.093 665.545 314.399 666.214 315.803 666.532 318.504 667.143 321.261 667.458 323.99 667.921 332.633 667.458 342.716 671.42 349.917 666.532 359.912 659.747 348.975 650.77 344.458 648.47 343.172 647.815 341.729 647.544 340.365 647.081 339 646.155 337.856 644.733 336.271 644.302 332.513 643.282 316.198 640.986 310.345 640.135 308.981 639.671 307.639 639.13 306.252 638.745 302.633 637.74 298.894 637.174 295.335 635.966L287.148 633.188 283.055 631.798C281.235 630.409 279.205 629.268 277.597 627.63 268.5 618.368 281.69 628.093 270.774 620.684 269.864 618.831 268.58 617.125 268.045 615.126 266.628 609.838 265.476 589.462 265.316 587.339 265.621 584.855 266.632 570.717 269.409 567.889 270.319 566.963 271.335 566.133 272.138 565.11 274.71 561.837 275.729 559.187 277.597 555.385 277.755 554.254 279.039 542.723 280.326 540.102 280.901 538.93 282.145 538.249 283.055 537.323 286.484 526.847 281.858 539.76 287.148 528.987 287.792 527.677 287.869 526.129 288.513 524.819 289.246 523.326 290.428 522.101 291.242 520.651 295.648 512.8 291.836 517.268 296.7 512.315 297.155 510.926 297.324 509.403 298.064 508.147 298.726 507.024 300.342 506.595 300.793 505.368 301.765 502.731 301.558 499.782 302.158 497.032 302.47 495.603 303.068 494.254 303.522 492.864 306.535 462.189 306.496 468.3 303.522 417.84 303.35 414.916 301.358 412.376 300.793 409.504 300.339 407.188 300.039 404.835 299.429 402.557 298.672 399.731 297.61 397 296.7 394.221L295.335 390.053C294.184 326.749 318.254 309.528 284.419 316.418 274.72 318.393 276.687 318.502 274.867 320.586Z" stroke="#000000" stroke-width="4" stroke-miterlimit="8" fill="none" fill-rule="evenodd"/><path d="M41 445C41 433.954 153.377 425 292 425 430.623 425 543 433.954 543 445 543 456.046 430.623 465 292 465 153.377 465 41 456.046 41 445Z" stroke="#000000" stroke-width="4" stroke-miterlimit="8" fill="none" fill-rule="evenodd"/><path d="M398.511 446.938C385.691 453.145 327.388 457.085 268.287 455.739 209.186 454.392 171.669 448.269 184.489 442.062 193.535 437.683 225.982 434.254 267.627 433.277" stroke="#000000" stroke-width="4" stroke-miterlimit="8" fill="none" fill-rule="evenodd"/><path d="M36.498 0.224464C64.908-0.505265 95.9988 0.593537 105.941 2.67871 115.884 4.76388 100.913 7.0458 72.5026 7.77553 71.4678 7.80211 70.4222 7.8264 69.3674 7.84835" stroke="#000000" stroke-width="4" stroke-miterlimit="8" fill="none" fill-rule="evenodd" transform="matrix(1 0 0 -1 251 446)"/><path d="M54.572 7.99976C24.7503 8.02316 0.318957 6.25135 0.00306646 4.0423-0.210337 2.54995 10.8096 1.17291 28.5864 0.470538" stroke="#000000" stroke-width="4" stroke-miterlimit="8" fill="none" fill-rule="evenodd" transform="matrix(1 0 0 -1 239 449)"/><path d="M196 341C175.925 353.377 155.85 365.754 143.683 375.087 131.517 384.42 128.678 393.957 123 397" stroke="#000000" stroke-width="4" stroke-miterlimit="8" fill="none" fill-rule="evenodd"/><path d="M123 669 475.094 669" stroke="#000000" stroke-width="4" stroke-miterlimit="8" fill="none" fill-rule="evenodd"/><path d="M541.881 460.76C525.157 467.298 486.456 472.945 433.206 476.616" stroke="#000000" stroke-width="4" stroke-miterlimit="8" fill="none" fill-rule="evenodd"/><path d="M0.167042-1.99301 675.013 54.5685 674.679 58.5545-0.167042 1.99301ZM664.626 46.9467 678.806 56.8934 663.168 64.3408C662.171 64.8158 660.978 64.3923 660.503 63.3951 660.028 62.3978 660.451 61.2044 661.448 60.7295L673.991 54.7562 673.703 58.1992 662.329 50.2214C661.425 49.5871 661.206 48.3398 661.84 47.4356 662.475 46.5313 663.722 46.3124 664.626 46.9467Z" transform="matrix(1 0 0 -1 276 125.893)"/><path d="M0.128733-1.99585 606.354 37.1058 606.097 41.0975-0.128733 1.99585ZM595.817 29.6846 610.186 39.357 594.693 47.1035C593.705 47.5975 592.504 47.197 592.01 46.2091 591.516 45.2211 591.916 44.0198 592.904 43.5258L605.33 37.3127 605.108 40.7606 593.583 33.0028C592.667 32.386 592.424 31.1431 593.041 30.2268 593.658 29.3105 594.901 29.0677 595.817 29.6846Z" transform="matrix(1 0 0 -1 345 204.356)"/><path d="M313.134 235.005 954.8 278.095 954.532 282.086 312.866 238.995ZM944.282 270.646 958.625 280.356 943.112 288.062C942.123 288.553 940.923 288.15 940.432 287.16 939.94 286.171 940.344 284.971 941.333 284.479L953.775 278.299 953.544 281.747 942.04 273.958C941.125 273.339 940.885 272.096 941.505 271.181 942.124 270.266 943.367 270.027 944.282 270.646Z"/><text font-family="DengXian,DengXian_MSFontService,sans-serif" font-weight="400" font-size="88" transform="translate(964.861 87)">外焰<tspan x="0" y="106">内焰</tspan><tspan x="0" y="211">焰心</tspan></text></g></svg>