<svg width="1280" height="720" xmlns="http://www.w3.org/2000/svg" xmlns:xlink="http://www.w3.org/1999/xlink" overflow="hidden"><defs><clipPath id="clip0"><rect x="0" y="0" width="1280" height="720"/></clipPath></defs><g clip-path="url(#clip0)"><rect x="0" y="0" width="1280" height="720" fill="#FFFFFF"/><path d="M245.833 479 343.167 479C344.731 479 346 480.269 346 481.833L346 496 243 496 243 481.833C243 480.269 244.269 479 245.833 479Z" stroke="#000000" stroke-width="4" stroke-miterlimit="8" fill="none" fill-rule="evenodd"/><path d="M260.578 457.436C260.793 455.691 261.341 452.546 261.865 451.852 263.402 449.814 265.297 448.129 267.012 446.268L269.586 443.475C270.659 442.312 271.503 440.832 272.803 439.985L276.021 437.891C282.173 428.992 272.308 442.617 281.812 432.307 284.5 429.391 283.196 431.003 285.672 427.421 287.025 418.615 287.079 420.021 285.672 405.783 285.59 404.949 284.769 404.417 284.385 403.689 283.909 402.785 283.527 401.827 283.099 400.897 281.328 389.371 283.396 401.488 281.812 394.614 281.546 393.463 280.258 391.782 281.168 391.124 282.06 390.479 282.884 392.52 283.742 393.218 283.956 393.916 283.906 394.792 284.385 395.312 285.453 396.47 287.543 396.781 288.889 397.406 293.802 399.691 288.96 398.415 295.967 399.501L299.828 400.897C300.471 401.129 301.152 401.266 301.758 401.595 302.616 402.06 303.422 402.662 304.332 402.991 305.37 403.366 306.494 403.376 307.549 403.689 308.858 404.076 311.41 405.085 311.41 405.085 312.053 405.55 312.711 405.993 313.34 406.481 314.213 407.157 314.983 407.997 315.914 408.575 316.503 408.94 317.201 409.04 317.844 409.273 321.276 414.857 316.772 408.11 321.061 412.763 321.608 413.356 321.853 414.212 322.348 414.857 322.931 415.615 323.635 416.253 324.279 416.951 325.809 421.93 323.639 415.91 326.852 421.139 327.229 421.751 327.193 422.575 327.496 423.233 327.842 423.983 328.437 424.577 328.783 425.327 329.295 426.438 331.206 432.027 331.357 433.005L332 437.193C331.785 442.079 331.894 446.995 331.357 451.852 331.242 452.885 330.563 453.751 330.07 454.644 329.274 456.082 327.496 458.832 327.496 458.832 326.924 461.313 326.777 463.101 324.922 465.114 323.828 466.3 322.529 467.375 321.061 467.906 313.126 470.775 318.556 469.228 304.332 470L278.594 469.302C273.238 469.044 277.407 468.57 272.803 467.208 271.34 466.775 269.801 466.743 268.299 466.51L264.439 465.114 262.508 464.416C261.865 463.718 261.083 463.143 260.578 462.322 259.392 460.392 260.364 459.181 260.578 457.436Z" fill="#ED7D31" fill-rule="evenodd"/><path d="M270.242 463.82C271.413 461.966 274.871 458.468 277.267 457.022 277.803 456.699 278.438 456.61 279.023 456.404L282.535 453.933C283.121 453.521 283.869 453.291 284.292 452.697 286.244 449.948 288.269 447.225 289.56 444.045 290.472 441.798 290.137 441.303 290.731 438.483 290.865 437.847 291.167 437.261 291.316 436.629 291.557 435.61 291.686 434.565 291.902 433.539 292.076 432.71 292.266 431.884 292.487 431.067 292.656 430.441 292.923 429.845 293.072 429.213L294.243 424.27C294.582 419.261 292.261 415 297.17 415 297.975 415 298.731 415.412 299.512 415.618 299.707 416.236 299.821 416.889 300.097 417.472 300.637 418.612 302.053 420.496 303.024 421.18 303.795 421.723 307.285 422.327 307.707 422.416 308.487 423.034 309.255 423.671 310.048 424.27 310.621 424.701 311.307 424.98 311.805 425.506 312.302 426.031 312.525 426.789 312.975 427.36 314.384 429.144 314.761 429.234 316.488 430.449 317.974 438.297 315.755 429.551 318.829 435.393 319.429 436.532 320 439.101 320 439.101 319.725 444.034 319.825 448.584 318.829 453.315 318.695 453.951 318.413 454.542 318.244 455.169 318.066 455.827 317.486 458.71 317.073 459.494 316.39 460.793 314.732 463.202 314.732 463.202 314.255 464.71 314.11 465.712 312.975 466.91 312.478 467.435 311.862 467.844 311.219 468.146 308.437 469.452 307.14 469.482 304.195 470 294.048 469.794 283.89 469.935 273.755 469.382 272.522 469.315 270.242 468.146 270.242 468.146 268.161 466.682 269.072 465.674 270.242 463.82Z" fill="#FFC000" fill-rule="evenodd"/><path d="M280.002 469.389C279.903 469.592 282.845 469.27 284.161 468.777 285.74 468.187 287.084 466.169 288.319 465.11 293.281 460.855 286.677 467.411 291.883 462.054 292.929 458.826 292.13 460.756 294.853 456.553L296.041 454.719C296.24 453.7 296.493 452.691 296.636 451.663 296.889 449.837 296.235 447.697 297.23 446.162 297.696 445.443 298.496 447.313 299.012 447.996 302.744 452.933 299.72 450.519 303.17 452.885L304.358 456.553 304.952 458.387C304.754 461.239 305.472 464.324 304.358 466.944 303.856 468.124 301.982 467.759 300.794 468.166 300.2 468.37 299.632 468.686 299.012 468.777L290.695 470C289.309 469.796 287.837 469.924 286.537 469.389 285.757 469.068 285.563 467.793 284.755 467.555 281.994 466.744 280.101 469.185 280.002 469.389Z" fill="#FFFF00" fill-rule="evenodd"/><path d="M262.833 462 327.167 462C328.731 462 330 463.269 330 464.833L330 479 260 479 260 464.833C260 463.269 261.269 462 262.833 462Z" stroke="#000000" stroke-width="4" stroke-miterlimit="8" fill="#FFFFFF" fill-rule="evenodd"/><path d="M152.603 584.881C168.063 548.971 218.743 516.185 243.787 496L344.714 496.101C369.368 513.917 415.072 543.679 433.376 587.149 440.191 619.54 389.019 659.277 386.342 687.773 386.619 697.553 387.256 700.725 386.284 710L202.482 710C203.353 704.624 203.577 699.268 203.143 688.442 204.186 664.915 145.459 616.509 152.603 584.881Z" stroke="#000000" stroke-width="4" stroke-miterlimit="8" fill="none" fill-rule="evenodd"/><path d="M283.021 499.045C282.078 500.182 282.314 502.054 282.314 503.59 282.314 512.602 282.463 521.293 283.727 530.102 283.91 531.374 284.198 532.626 284.434 533.889 284.669 536.666 284.955 539.439 285.141 542.221 285.426 546.51 285.484 550.816 285.847 555.098 285.975 556.609 286.884 560.302 287.26 561.915 286.789 570.752 286.712 579.624 285.847 588.426 285.758 589.332 284.724 589.843 284.434 590.699 283.77 592.656 284.098 595.026 283.021 596.759 282.55 597.516 281.987 598.217 281.607 599.031 281.043 600.242 280.496 603.201 280.194 604.333 279.989 605.101 279.871 605.921 279.487 606.606 279.145 607.218 278.545 607.616 278.074 608.121 277.839 608.878 277.572 609.625 277.368 610.393 277.101 611.394 277.044 612.466 276.661 613.423 276.326 614.26 275.719 614.938 275.248 615.695 273.472 621.407 275.867 614.367 273.128 620.24 272.795 620.954 272.715 621.778 272.421 622.512 269.801 629.065 271.959 622.485 270.301 627.815 270.066 629.835 269.934 631.872 269.595 633.874 269.461 634.66 269.034 635.364 268.888 636.147 268.561 637.897 268.471 639.691 268.181 641.449 267.764 643.985 266.768 649.024 266.768 649.024 266.113 656.747 265.43 659.833 266.768 667.96 266.916 668.857 267.802 669.418 268.181 670.233 268.514 670.947 268.505 671.82 268.888 672.505 269.231 673.117 269.885 673.462 270.301 674.02 270.832 674.731 271.114 675.649 271.715 676.292 274.067 678.814 273.368 677.025 275.954 678.565 277.439 679.449 278.675 680.78 280.194 681.595 284.353 683.824 282.022 682.753 287.26 684.625 287.967 684.877 288.637 685.325 289.38 685.382L299.273 686.139C300.215 686.392 301.166 686.611 302.1 686.897 302.816 687.116 303.492 687.481 304.22 687.654 305.618 687.988 307.046 688.159 308.459 688.412 312.935 688.159 318.156 690.319 321.885 687.654 327.062 683.955 321.398 679.061 319.059 677.807 318.393 677.45 317.646 677.302 316.939 677.05 316.232 676.545 315.64 675.77 314.819 675.535 312.873 674.979 304.424 673.727 301.393 673.263 300.686 673.01 299.992 672.715 299.273 672.505 297.399 671.957 295.463 671.649 293.62 670.99L289.38 669.475 287.26 668.718C286.318 667.96 285.267 667.338 284.434 666.445 279.723 661.396 286.554 666.698 280.901 662.658 280.43 661.648 279.765 660.718 279.487 659.628 278.754 656.745 278.157 645.636 278.074 644.479 278.232 643.124 278.756 635.416 280.194 633.874 280.665 633.369 281.191 632.917 281.607 632.359 282.939 630.575 283.467 629.13 284.434 627.057 284.516 626.441 285.181 620.154 285.847 618.725 286.145 618.086 286.789 617.715 287.26 617.21 289.036 611.498 286.641 618.539 289.38 612.665 289.713 611.951 289.754 611.107 290.087 610.393 290.467 609.579 291.079 608.911 291.5 608.121 293.782 603.84 291.808 606.276 294.327 603.576 294.562 602.818 294.65 601.988 295.033 601.303 295.376 600.691 296.213 600.457 296.447 599.788 296.95 598.35 296.842 596.743 297.153 595.244 297.315 594.464 297.624 593.729 297.86 592.971 299.42 576.247 299.4 579.579 297.86 552.068 297.771 550.474 296.739 549.089 296.447 547.523 296.211 546.261 296.056 544.978 295.74 543.736 295.348 542.195 294.798 540.706 294.327 539.191L293.62 536.919C293.024 502.405 305.489 493.017 287.967 496.773 282.944 497.85 283.963 497.909 283.021 499.045Z" stroke="#000000" stroke-width="4" stroke-miterlimit="8" fill="none" fill-rule="evenodd"/><path d="M161 567C161 560.925 219.427 556 291.5 556 363.573 556 422 560.925 422 567 422 573.075 363.573 578 291.5 578 219.427 578 161 573.075 161 567Z" stroke="#000000" stroke-width="4" stroke-miterlimit="8" fill="none" fill-rule="evenodd"/><path d="M346.924 567.763C340.862 571.284 311.134 573.573 280.525 572.876 249.915 572.179 230.015 568.759 236.076 565.237 240.345 562.757 256.725 560.787 278.07 560.186" stroke="#000000" stroke-width="4" stroke-miterlimit="8" fill="none" fill-rule="evenodd"/><path d="M19.4565 0.103354C34.3831-0.247145 50.5325 0.317874 55.5271 1.36536 60.5217 2.41284 52.4702 3.54613 37.5436 3.89663 37.0196 3.90893 36.4907 3.92017 35.9574 3.93031" stroke="#000000" stroke-width="4" stroke-miterlimit="8" fill="none" fill-rule="evenodd" transform="matrix(1 0 0 -1 270 567)"/><path d="M28.3575 4.99982C12.8948 5.01744 0.199711 3.91254 0.00228815 2.53194-0.120962 1.67004 4.73739 0.86326 12.858 0.397118" stroke="#000000" stroke-width="4" stroke-miterlimit="8" fill="none" fill-rule="evenodd" transform="matrix(1 0 0 -1 264 569)"/><path d="M241 510C230.825 516.851 220.65 523.703 214.483 528.87 208.317 534.036 206.878 539.315 204 541" stroke="#000000" stroke-width="4" stroke-miterlimit="8" fill="none" fill-rule="evenodd"/><path d="M204 689 387.208 689" stroke="#000000" stroke-width="4" stroke-miterlimit="8" fill="none" fill-rule="evenodd"/><path d="M421.683 574.784C413.502 578.31 394.175 581.381 367.313 583.424" stroke="#000000" stroke-width="4" stroke-miterlimit="8" fill="none" fill-rule="evenodd"/><path d="M260.106 347.965 260.106 347.965C261.01 330.712 275.729 317.458 292.982 318.362L721.143 340.796 717.87 403.274 289.709 380.841C272.456 379.937 259.202 365.218 260.106 347.965Z" stroke="#000000" stroke-width="4" stroke-miterlimit="8" fill="#FFFFFF" fill-rule="evenodd"/><path d="M490.303 330.201 293.323 127.235 296.193 124.449 493.174 327.415ZM296.15 139.808 291.994 122.993 308.676 127.652C309.74 127.949 310.362 129.052 310.065 130.116 309.768 131.18 308.664 131.801 307.601 131.504L294.22 127.768 296.699 125.362 300.034 138.848C300.299 139.921 299.644 141.005 298.572 141.27 297.5 141.535 296.415 140.88 296.15 139.808Z"/><text font-family="DengXian,DengXian_MSFontService,sans-serif" font-weight="400" font-size="64" transform="translate(34.1522 101)">微微管口向下倾斜</text><path d="M1.60649-1.19129 145.664 193.074 142.451 195.457-1.60649 1.19129ZM144.519 180.236 146.42 197.452 130.498 190.633C129.483 190.198 129.012 189.022 129.447 188.007 129.882 186.991 131.057 186.521 132.073 186.956L144.843 192.425 142.068 194.483 140.543 180.675C140.422 179.577 141.213 178.588 142.311 178.467 143.409 178.346 144.397 179.138 144.519 180.236Z" transform="matrix(1 0 0 -1 654 368.444)"/><text font-family="DengXian,DengXian_MSFontService,sans-serif" font-weight="400" font-size="64" transform="translate(809.585 154)">略出胶塞<tspan x="0" y="77">便于气体导出</tspan></text><rect x="281.5" y="344.423" width="20.0775" height="22.0775" fill="#FFFFFF"/><path d="M301.578 344.423 308.5 337.5 308.5 359.578 301.578 366.5Z" fill="#CDCDCD" fill-rule="evenodd"/><path d="M281.5 344.423 288.423 337.5 308.5 337.5 301.578 344.423Z" fill="#FFFFFF" fill-rule="evenodd"/><path d="M281.5 344.423 288.423 337.5 308.5 337.5 308.5 359.578 301.578 366.5 281.5 366.5ZM281.5 344.423 301.578 344.423 308.5 337.5M301.578 344.423 301.578 366.5" stroke="#000000" stroke-width="1.33333" stroke-miterlimit="8" fill="none" fill-rule="evenodd"/><rect x="304.5" y="347.679" width="20.8211" height="21.8211" fill="#FFFFFF"/><path d="M325.321 347.679 332.5 340.5 332.5 362.321 325.321 369.5Z" fill="#CDCDCD" fill-rule="evenodd"/><path d="M304.5 347.679 311.679 340.5 332.5 340.5 325.321 347.679Z" fill="#FFFFFF" fill-rule="evenodd"/><path d="M304.5 347.679 311.679 340.5 332.5 340.5 332.5 362.321 325.321 369.5 304.5 369.5ZM304.5 347.679 325.321 347.679 332.5 340.5M325.321 347.679 325.321 369.5" stroke="#000000" stroke-width="1.33333" stroke-miterlimit="8" fill="none" fill-rule="evenodd"/><rect x="296.5" y="343.679" width="20.8211" height="21.8211" fill="#FFFFFF"/><path d="M317.321 343.679 324.5 336.5 324.5 358.321 317.321 365.5Z" fill="#CDCDCD" fill-rule="evenodd"/><path d="M296.5 343.679 303.679 336.5 324.5 336.5 317.321 343.679Z" fill="#FFFFFF" fill-rule="evenodd"/><path d="M296.5 343.679 303.679 336.5 324.5 336.5 324.5 358.321 317.321 365.5 296.5 365.5ZM296.5 343.679 317.321 343.679 324.5 336.5M317.321 343.679 317.321 365.5" stroke="#000000" stroke-width="1.33333" stroke-miterlimit="8" fill="none" fill-rule="evenodd"/><rect x="284.5" y="355.423" width="20.0775" height="22.0775" fill="#FFFFFF"/><path d="M304.578 355.423 311.5 348.5 311.5 370.578 304.578 377.5Z" fill="#CDCDCD" fill-rule="evenodd"/><path d="M284.5 355.423 291.423 348.5 311.5 348.5 304.578 355.423Z" fill="#FFFFFF" fill-rule="evenodd"/><path d="M284.5 355.423 291.423 348.5 311.5 348.5 311.5 370.578 304.578 377.5 284.5 377.5ZM284.5 355.423 304.578 355.423 311.5 348.5M304.578 355.423 304.578 377.5" stroke="#000000" stroke-width="1.33333" stroke-miterlimit="8" fill="none" fill-rule="evenodd"/><rect x="587" y="75" width="15" height="622" stroke="#000000" stroke-width="4" stroke-miterlimit="8" fill="#FFFFFF"/><rect x="503" y="695" width="184" height="15" stroke="#000000" stroke-width="4" stroke-miterlimit="8" fill="#FFFFFF"/><path d="M653.234 375.055 653.907 362.203C654.016 360.114 655.799 358.508 657.889 358.618L859.677 369.19 858.607 389.609 656.819 379.037C654.729 378.927 653.124 377.145 653.234 375.055Z" stroke="#000000" stroke-width="4" stroke-miterlimit="8" fill="#FFFFFF" fill-rule="evenodd"/><path d="M685.768 395.453 688.407 345.088C688.581 341.77 691.411 339.221 694.73 339.395L721.143 340.779 717.875 403.16 691.461 401.776C688.143 401.602 685.594 398.771 685.768 395.453Z" stroke="#000000" stroke-width="4" stroke-miterlimit="8" fill="#FFFFFF" fill-rule="evenodd"/><path d="M588.107 384.334 756.63 496.33 754.416 499.662 585.893 387.666ZM751.199 484.643 758.829 500.193 741.537 499.181C740.435 499.116 739.593 498.17 739.658 497.067 739.722 495.965 740.668 495.123 741.771 495.188L755.64 496 753.727 498.877 747.608 486.405C747.121 485.414 747.53 484.215 748.522 483.729 749.514 483.242 750.712 483.652 751.199 484.643Z"/><text font-family="DengXian,DengXian_MSFontService,sans-serif" font-weight="400" font-size="64" transform="translate(768.54 521)">夹在中上部</text></g></svg>