<svg width="1280" height="720" xmlns="http://www.w3.org/2000/svg" xmlns:xlink="http://www.w3.org/1999/xlink" overflow="hidden"><defs><clipPath id="clip0"><rect x="0" y="0" width="1280" height="720"/></clipPath></defs><g clip-path="url(#clip0)"><rect x="0" y="0" width="1280" height="720" fill="#FFFFFF"/><rect x="111" y="6" width="201" height="701" stroke="#000000" stroke-width="4" stroke-miterlimit="8" fill="none"/><path d="M34 707 388.998 707" stroke="#000000" stroke-width="4" stroke-miterlimit="8" fill="none" fill-rule="evenodd"/><path d="M111.5 74.5001 207.222 74.5002" stroke="#000000" stroke-width="1.33333" stroke-miterlimit="8" fill="none" fill-rule="evenodd"/><path d="M111.5 105.5 170.29 105.5" stroke="#000000" stroke-width="1.33333" stroke-miterlimit="8" fill="none" fill-rule="evenodd"/><path d="M111.5 137.5 170.29 137.5" stroke="#000000" stroke-width="1.33333" stroke-miterlimit="8" fill="none" fill-rule="evenodd"/><path d="M111.5 169.5 170.29 169.5" stroke="#000000" stroke-width="1.33333" stroke-miterlimit="8" fill="none" fill-rule="evenodd"/><path d="M111.5 200.5 170.29 200.5" stroke="#000000" stroke-width="1.33333" stroke-miterlimit="8" fill="none" fill-rule="evenodd"/><path d="M111.5 232.5 207.222 232.5" stroke="#000000" stroke-width="1.33333" stroke-miterlimit="8" fill="none" fill-rule="evenodd"/><path d="M111.5 263.5 170.29 263.5" stroke="#000000" stroke-width="1.33333" stroke-miterlimit="8" fill="none" fill-rule="evenodd"/><path d="M111.5 295.5 170.29 295.5" stroke="#000000" stroke-width="1.33333" stroke-miterlimit="8" fill="none" fill-rule="evenodd"/><path d="M111.5 327.5 170.29 327.5" stroke="#000000" stroke-width="1.33333" stroke-miterlimit="8" fill="none" fill-rule="evenodd"/><path d="M111.5 358.5 170.29 358.5" stroke="#000000" stroke-width="1.33333" stroke-miterlimit="8" fill="none" fill-rule="evenodd"/><path d="M111.5 390.5 207.222 390.5" stroke="#000000" stroke-width="1.33333" stroke-miterlimit="8" fill="none" fill-rule="evenodd"/><path d="M111.5 422.5 170.29 422.5" stroke="#000000" stroke-width="1.33333" stroke-miterlimit="8" fill="none" fill-rule="evenodd"/><path d="M111.5 453.5 170.29 453.5" stroke="#000000" stroke-width="1.33333" stroke-miterlimit="8" fill="none" fill-rule="evenodd"/><path d="M111.5 485.5 170.29 485.5" stroke="#000000" stroke-width="1.33333" stroke-miterlimit="8" fill="none" fill-rule="evenodd"/><path d="M111.5 517.5 170.29 517.5" stroke="#000000" stroke-width="1.33333" stroke-miterlimit="8" fill="none" fill-rule="evenodd"/><path d="M111.5 548.5 207.222 548.5" stroke="#000000" stroke-width="1.33333" stroke-miterlimit="8" fill="none" fill-rule="evenodd"/><path d="M111.5 580.5 170.29 580.5" stroke="#000000" stroke-width="1.33333" stroke-miterlimit="8" fill="none" fill-rule="evenodd"/><path d="M111.5 612.5 170.29 612.5" stroke="#000000" stroke-width="1.33333" stroke-miterlimit="8" fill="none" fill-rule="evenodd"/><path d="M111.5 643.5 170.29 643.5" stroke="#000000" stroke-width="1.33333" stroke-miterlimit="8" fill="none" fill-rule="evenodd"/><path d="M111.5 675.5 170.29 675.5" stroke="#000000" stroke-width="1.33333" stroke-miterlimit="8" fill="none" fill-rule="evenodd"/><path d="M308.172 356.789C292.059 381.893 235.939 396.07 182.825 388.455 151.866 384.016 127.321 372.804 116.879 358.331" stroke="#000000" stroke-width="3" stroke-miterlimit="8" fill="none" fill-rule="evenodd"/><path d="M207 390 561.998 390" stroke="#000000" stroke-width="2" stroke-miterlimit="8" stroke-dasharray="6 2" fill="none" fill-rule="evenodd"/><path d="M600 319 696.211 400.966" stroke="#000000" stroke-width="4" stroke-miterlimit="8" fill="none" fill-rule="evenodd"/><path d="M0 0 77.631 44.6564" stroke="#000000" stroke-width="4" stroke-miterlimit="8" fill="none" fill-rule="evenodd" transform="matrix(1 0 0 -1 619 445.656)"/><path d="M634.99 435.497C617.942 417.177 614.425 382.405 627.133 357.83 629.031 354.16 631.236 350.843 633.699 347.953" stroke="#000000" stroke-width="3" stroke-miterlimit="8" fill="none" fill-rule="evenodd"/><path d="M619.5 391C619.5 369.185 626.216 351.5 634.5 351.5 642.784 351.5 649.5 369.185 649.5 391 649.5 412.815 642.784 430.5 634.5 430.5 626.216 430.5 619.5 412.815 619.5 391Z" stroke="#000000" stroke-width="1.33333" stroke-miterlimit="8" fill-rule="evenodd"/><path d="M621.5 390.5C621.5 381.664 623.515 374.5 626 374.5 628.485 374.5 630.5 381.664 630.5 390.5 630.5 399.337 628.485 406.5 626 406.5 623.515 406.5 621.5 399.337 621.5 390.5Z" stroke="#FFFFFF" stroke-width="1.33333" stroke-miterlimit="8" fill="#FFFFFF" fill-rule="evenodd"/><path d="M599.5 337.5 634.359 351.35" stroke="#000000" stroke-width="1.33333" stroke-miterlimit="8" fill="none" fill-rule="evenodd"/></g></svg>