<svg width="1280" height="720" xmlns="http://www.w3.org/2000/svg" xmlns:xlink="http://www.w3.org/1999/xlink" overflow="hidden"><defs><clipPath id="clip0"><rect x="0" y="0" width="1280" height="720"/></clipPath></defs><g clip-path="url(#clip0)"><rect x="0" y="0" width="1280" height="720" fill="#FFFFFF"/><path d="M33.5001 185.5C33.5001 197.098 83.6442 206.5 145.5 206.5 207.356 206.5 257.5 197.098 257.5 185.5L257.5 689.5C257.5 701.098 207.356 710.5 145.5 710.5 83.6442 710.5 33.5001 701.098 33.5001 689.5Z" fill="#E7E6E6" fill-rule="evenodd"/><path d="M33.5001 185.5C33.5001 173.902 83.6442 164.5 145.5 164.5 207.356 164.5 257.5 173.902 257.5 185.5 257.5 197.098 207.356 206.5 145.5 206.5 83.6442 206.5 33.5001 197.098 33.5001 185.5Z" fill="#F1F0F0" fill-rule="evenodd"/><path d="M257.5 185.5C257.5 197.098 207.356 206.5 145.5 206.5 83.6442 206.5 33.5001 197.098 33.5001 185.5 33.5001 173.902 83.6442 164.5 145.5 164.5 207.356 164.5 257.5 173.902 257.5 185.5L257.5 689.5C257.5 701.098 207.356 710.5 145.5 710.5 83.6442 710.5 33.5001 701.098 33.5001 689.5L33.5001 185.5" stroke="#000000" stroke-width="1.33333" stroke-miterlimit="8" fill="none" fill-rule="evenodd"/><path d="M56.5254 168.192C57.0913 163.774 58.5396 155.812 59.9214 154.055 63.9763 148.897 68.9773 144.63 73.5051 139.918L80.297 132.849C83.1269 129.904 85.355 126.156 88.7868 124.014L97.2767 118.712C113.513 96.1816 87.4782 130.676 112.558 104.575 119.654 97.1914 116.212 101.273 122.746 92.2054 126.316 69.9125 126.457 73.4709 122.746 37.4244 122.529 35.3127 120.363 33.9672 119.35 32.1232 118.094 29.836 117.086 27.4109 115.954 25.0547 111.281-4.12422 116.739 26.553 112.558 9.15043 111.858 6.23663 108.459 1.98096 110.86 0.314861 113.215-1.31874 115.388 3.8492 117.652 5.61627 118.218 7.38335 118.085 9.60041 119.35 10.9175 122.166 13.8484 127.684 14.6347 131.236 16.2189 144.201 22.0015 131.422 18.7712 149.914 21.5203L160.101 25.0547C161.799 25.6436 163.594 25.9888 165.195 26.8217 167.459 27.9999 169.586 29.5229 171.987 30.3559 174.725 31.3058 177.693 31.3328 180.477 32.1232 183.931 33.1034 190.665 35.6573 190.665 35.6573 192.363 36.8354 194.098 37.9572 195.759 39.1916 198.062 40.9035 200.094 43.0317 202.551 44.4929 204.105 45.4171 205.947 45.671 207.645 46.2601 216.7 60.3966 204.815 43.3157 216.134 55.0957 217.577 56.5975 218.224 58.7655 219.53 60.3971 221.068 62.3169 222.926 63.9314 224.624 65.6985 228.662 78.3038 222.937 63.0638 231.416 76.3012 232.409 77.851 232.314 79.9365 233.114 81.6026 234.027 83.5022 235.597 85.0044 236.51 86.904 237.861 89.7161 242.906 103.867 243.302 106.342L245 116.945C244.434 129.315 244.72 141.759 243.302 154.055 243 156.67 241.208 158.864 239.906 161.123 237.806 164.766 233.114 171.726 233.114 171.726 231.605 178.009 231.218 182.535 226.322 187.63 223.436 190.634 220.006 193.355 216.134 194.699 195.194 201.963 209.522 198.047 171.987 200L104.069 198.233C89.9333 197.579 100.934 196.379 88.7868 192.932 84.9256 191.836 80.8629 191.753 76.901 191.164L66.7133 187.63 61.6193 185.863C59.9214 184.096 57.8574 182.641 56.5254 180.562 53.3958 175.676 55.9595 172.609 56.5254 168.192Z" fill="#ED7D31" fill-rule="evenodd"/><path d="M82.3129 184.494C85.4348 179.843 94.6557 171.065 101.045 167.438 102.474 166.627 104.167 166.404 105.728 165.888L115.094 159.685C116.655 158.652 118.652 158.075 119.777 156.584 124.984 149.688 130.384 142.856 133.827 134.876 136.259 129.238 135.365 127.998 136.949 120.921 137.306 119.326 138.111 117.855 138.51 116.27 139.153 113.713 139.495 111.089 140.071 108.517 140.536 106.436 141.042 104.364 141.632 102.315 142.084 100.743 142.794 99.2485 143.193 97.6629L146.315 85.2584C147.219 72.6924 141.029 62 154.12 62 156.265 62 158.283 63.0337 160.364 63.5505 160.884 65.101 161.189 66.7403 161.925 68.2022 163.365 71.0628 167.141 75.7908 169.73 77.5057 171.787 78.8679 181.093 80.3831 182.218 80.6067 184.3 82.1572 186.345 83.7564 188.462 85.2584 189.989 86.3416 191.819 87.0419 193.146 88.3596 194.472 89.6774 195.066 91.5795 196.268 93.0112 200.024 97.4883 201.029 97.7148 205.634 100.764 209.598 120.454 203.679 98.5098 211.878 113.169 213.476 116.026 215 122.472 215 122.472 214.267 134.849 214.533 146.265 211.878 158.135 211.521 159.73 210.769 161.215 210.317 162.786 209.842 164.439 208.295 171.673 207.195 173.64 205.373 176.898 200.951 182.944 200.951 182.944 199.681 186.728 199.294 189.241 196.268 192.247 194.941 193.565 193.299 194.591 191.585 195.348 184.164 198.624 180.705 198.7 172.852 200 145.794 199.483 118.706 199.838 91.6791 198.449 88.3925 198.28 82.3129 195.348 82.3129 195.348 76.7639 191.674 79.1909 189.146 82.3129 184.494Z" fill="#FFC000" fill-rule="evenodd"/><path d="M108.006 200.446C107.749 200.964 115.397 200.144 118.818 198.893 122.923 197.391 126.417 192.264 129.629 189.572 142.531 178.757 125.36 195.42 138.896 181.804 141.615 173.6 139.538 178.506 146.619 167.822L149.708 163.161C150.223 160.572 150.881 158.007 151.252 155.393 151.912 150.751 150.211 145.313 152.797 141.411 154.009 139.583 156.089 144.338 157.43 146.072 167.133 158.62 159.272 152.485 168.242 158.501L171.331 167.822 172.875 172.482C172.361 179.732 174.227 187.573 171.331 194.232 170.026 197.233 165.153 196.304 162.064 197.339 160.519 197.857 159.042 198.661 157.43 198.893L135.807 202C132.203 201.482 128.376 201.806 124.996 200.446 122.968 199.631 122.463 196.389 120.362 195.786 113.185 193.723 108.264 199.929 108.006 200.446Z" fill="#FFFF00" fill-rule="evenodd"/><path d="M149.375 175.5C150.41 175.5 151.25 178.858 151.25 183 151.25 187.142 150.41 190.5 149.375 190.5 148.339 190.5 147.5 187.142 147.5 183 147.5 178.858 148.339 175.5 149.375 175.5L318.625 175.5C319.661 175.5 320.5 178.858 320.5 183 320.5 187.142 319.661 190.5 318.625 190.5L149.375 190.5" stroke="#000000" stroke-width="1.33333" stroke-miterlimit="8" fill="none" fill-rule="evenodd"/><path d="M324.135 171.201C324.709 171.275 325.744 171.466 325.973 171.648 326.643 172.181 327.198 172.839 327.811 173.435L328.73 174.329C329.112 174.701 329.6 174.994 329.878 175.446L330.567 176.563C333.496 178.699 329.012 175.273 332.405 178.574 333.365 179.507 332.834 179.054 334.013 179.914 336.911 180.384 336.449 180.402 341.135 179.914 341.409 179.885 341.584 179.6 341.824 179.467 342.121 179.302 342.437 179.169 342.743 179.02 346.536 178.405 342.548 179.124 344.81 178.574 345.189 178.481 345.742 178.034 345.959 178.35 346.171 178.66 345.5 178.946 345.27 179.244 345.04 179.318 344.752 179.301 344.581 179.467 344.2 179.838 344.097 180.564 343.891 181.031 343.14 182.737 343.56 181.056 343.202 183.489L342.743 184.829C342.666 185.053 342.621 185.289 342.513 185.499 342.36 185.797 342.162 186.077 342.054 186.393 341.93 186.753 341.927 187.144 341.824 187.51 341.697 187.965 341.365 188.851 341.365 188.851 341.211 189.074 341.066 189.302 340.905 189.521 340.682 189.824 340.406 190.091 340.216 190.415 340.096 190.619 340.063 190.861 339.986 191.085 338.148 192.276 340.369 190.713 338.837 192.202 338.642 192.392 338.36 192.477 338.148 192.649 337.899 192.851 337.689 193.096 337.459 193.319 335.82 193.85 337.802 193.097 336.081 194.213 335.879 194.343 335.608 194.331 335.392 194.436 335.145 194.556 334.949 194.763 334.702 194.883 334.337 195.061 332.497 195.724 332.175 195.777L330.797 196C329.189 195.926 327.571 195.963 325.973 195.777 325.633 195.737 325.348 195.501 325.054 195.33 324.58 195.053 323.676 194.436 323.676 194.436 322.859 194.238 322.27 194.187 321.608 193.542 321.218 193.163 320.864 192.711 320.689 192.202 319.745 189.447 320.254 191.332 320 186.393L320.23 177.456C320.315 175.597 320.471 177.044 320.919 175.446 321.061 174.938 321.072 174.403 321.149 173.882L321.608 172.541 321.838 171.871C322.067 171.648 322.257 171.376 322.527 171.201 323.162 170.789 323.561 171.126 324.135 171.201Z" fill="#ED7D31" fill-rule="evenodd"/><path d="M322.022 175.438C322.629 175.852 323.774 177.072 324.247 177.918 324.353 178.107 324.382 178.331 324.449 178.538L325.258 179.777C325.393 179.984 325.468 180.248 325.663 180.397 326.562 181.086 327.454 181.801 328.494 182.256 329.23 182.578 329.392 182.46 330.315 182.67 330.523 182.717 330.715 182.823 330.921 182.876 331.255 182.961 331.597 183.007 331.933 183.083 332.204 183.145 332.474 183.211 332.742 183.289 332.947 183.349 333.142 183.443 333.348 183.496L334.966 183.909C336.605 184.029 338 183.21 338 184.942 338 185.226 337.865 185.493 337.798 185.769 337.596 185.838 337.382 185.878 337.191 185.975 336.818 186.166 336.201 186.666 335.978 187.008 335.8 187.281 335.602 188.512 335.573 188.661 335.371 188.937 335.162 189.207 334.966 189.488 334.825 189.69 334.734 189.932 334.562 190.108 334.39 190.283 334.142 190.362 333.955 190.521 333.371 191.018 333.342 191.151 332.944 191.76 330.376 192.285 333.238 191.502 331.326 192.587 330.953 192.798 330.112 193 330.112 193 328.498 192.903 327.009 192.938 325.461 192.587 325.253 192.54 325.059 192.44 324.854 192.38 324.638 192.317 323.695 192.113 323.438 191.967 323.013 191.726 322.225 191.141 322.225 191.141 321.731 190.972 321.403 190.921 321.011 190.521 320.839 190.345 320.705 190.128 320.607 189.901 320.179 188.919 320.17 188.461 320 187.422 320.067 183.84 320.021 180.255 320.202 176.678 320.224 176.243 320.607 175.438 320.607 175.438 321.086 174.704 321.416 175.025 322.022 175.438Z" fill="#FFC000" fill-rule="evenodd"/><path d="M320.204 178.001C320.136 177.965 320.243 179.024 320.408 179.498 320.604 180.066 321.277 180.55 321.63 180.995 323.048 182.781 320.863 180.404 322.649 182.278 323.725 182.654 323.081 182.367 324.482 183.347L325.094 183.775C325.433 183.846 325.77 183.937 326.112 183.989 326.721 184.08 327.434 183.845 327.946 184.203 328.186 184.37 327.562 184.658 327.335 184.844 325.689 186.188 326.494 185.099 325.705 186.341L324.482 186.769 323.871 186.983C322.92 186.911 321.892 187.17 321.019 186.769 320.625 186.588 320.747 185.913 320.611 185.486 320.543 185.272 320.438 185.067 320.408 184.844L320 181.85C320.068 181.351 320.025 180.821 320.204 180.353 320.311 180.072 320.736 180.002 320.815 179.712 321.086 178.718 320.272 178.036 320.204 178.001Z" fill="#FFFF00" fill-rule="evenodd"/></g></svg>