<svg width="1280" height="720" xmlns="http://www.w3.org/2000/svg" xmlns:xlink="http://www.w3.org/1999/xlink" overflow="hidden"><defs><clipPath id="clip0"><rect x="0" y="0" width="1280" height="720"/></clipPath></defs><g clip-path="url(#clip0)"><rect x="0" y="0" width="1280" height="720" fill="#FFFFFF"/><path d="M91 607 1163.64 607 1163.64 611 91 611ZM1152.62 600.273 1167.58 609 1152.62 617.728C1151.67 618.284 1150.44 617.962 1149.88 617.008 1149.33 616.054 1149.65 614.829 1150.6 614.273L1162.6 607.273 1162.6 610.728 1150.6 603.728C1149.65 603.171 1149.33 601.946 1149.88 600.992 1150.44 600.038 1151.67 599.716 1152.62 600.273Z"/><path d="M2-3.25181e-07 2.0001 641.755-1.9999 641.755-2 3.25181e-07ZM8.72766 630.762 0.000104754 645.724-8.72746 630.762C-9.28402 629.808-8.96174 628.583-8.00764 628.027-7.05354 627.47-5.8289 627.792-5.27234 628.747L1.72766 640.747-1.72745 640.747 5.27254 628.747C5.8291 627.792 7.05374 627.47 8.00784 628.027 8.96195 628.583 9.28422 629.808 8.72766 630.762Z" transform="matrix(1 0 0 -1 144 677.714)"/><path d="M114.93 629.844C113.066 629.844 111.328 630.508 109.715 631.837 108.102 633.165 106.687 635.063 105.471 637.53 104.255 639.997 103.31 642.706 102.637 645.656 101.964 648.606 101.628 651.211 101.628 653.471 101.628 658.802 103.569 661.468 107.451 661.468 109.814 661.468 111.984 660.381 113.959 658.207 115.935 656.033 117.552 652.984 118.812 649.059 120.071 645.134 120.701 641.369 120.701 637.763 120.701 632.484 118.777 629.844 114.93 629.844ZM115.214 627.567C118.544 627.567 121.11 628.533 122.913 630.465 124.716 632.397 125.618 635.192 125.618 638.85 125.618 641.524 125.161 644.53 124.246 647.869 123.332 651.207 122.008 654.097 120.274 656.538 118.54 658.979 116.56 660.791 114.335 661.973 112.109 663.154 109.78 663.745 107.347 663.745 103.879 663.745 101.248 662.779 99.4541 660.847 97.6599 658.915 96.7627 656.154 96.7627 652.566 96.7627 649.978 97.1984 647.053 98.0696 643.793 98.9409 640.532 100.2 637.655 101.848 635.162 103.496 632.669 105.462 630.78 107.748 629.495 110.034 628.209 112.523 627.567 115.214 627.567Z" fill-rule="evenodd"/><text fill="#000000" fill-opacity="0" font-family="Arial,Arial_MSFontService,sans-serif" font-size="36.1787" x="96.7627" y="659.223">𝑂</text><path d="M36.732 42.2579C35.6623 42.2579 34.5409 42.2838 33.3677 42.3356L29.8482 58.0182 32.5396 58.0182C34.6272 58.0182 36.3136 57.8025 37.5989 57.3712 38.8842 56.9399 39.9366 56.2714 40.7561 55.3656 41.5756 54.4598 42.2097 53.3859 42.6582 52.1437 43.1068 50.9015 43.3311 49.5385 43.3311 48.0548 43.3311 46.0535 42.8221 44.587 41.8042 43.6554 40.7863 42.7238 39.0956 42.2579 36.732 42.2579ZM25.8887 39.9806 37.3013 39.9806C39.3544 39.9806 41.0408 40.1402 42.3606 40.4594 43.6805 40.7785 44.7674 41.2702 45.6214 41.9345 46.4754 42.5987 47.1137 43.4397 47.5364 44.4576 47.9591 45.4756 48.1704 46.6574 48.1704 48.0031 48.1704 50.591 47.558 52.8338 46.333 54.7316 45.1081 56.6294 43.4475 58.0268 41.3513 58.924 39.2552 59.8211 36.7406 60.2697 33.8076 60.2697 32.0479 60.2697 30.5814 60.2352 29.4082 60.1661L27.752 67.7745C27.5967 68.4819 27.4889 69.0254 27.4285 69.4049 27.3681 69.7845 27.3164 70.1942 27.2732 70.6342 27.2301 71.0741 27.2085 71.4666 27.2085 71.8117 27.2085 72.3465 27.2948 72.7649 27.4673 73.0668 27.6398 73.3687 27.8986 73.5887 28.2437 73.7267 28.5887 73.8647 29.184 73.9682 30.0293 74.0372L29.7447 75.3053 19.1084 75.3053 19.3931 74.0372C20.0487 73.9337 20.5404 73.7655 20.8682 73.5326 21.196 73.2997 21.472 72.9762 21.6963 72.5621 21.9206 72.1481 22.1276 71.6434 22.3174 71.0482 22.5072 70.453 22.7919 69.3014 23.1714 67.5934L27.5708 47.6666C27.9504 45.9414 28.1402 44.5784 28.1402 43.5778 28.1402 42.7324 27.9418 42.1458 27.545 41.818 27.1481 41.4902 26.5012 41.3004 25.604 41.2487Z" fill-rule="evenodd"/><text fill="#000000" fill-opacity="0" font-family="Arial,Arial_MSFontService,sans-serif" font-size="35.3247" x="19.1084" y="70.8897">𝑃</text><path d="M72.2742 38.2726 76.2854 38.2726 57.6008 86.4332 53.5378 86.4332Z" fill-rule="evenodd"/><text fill="#000000" fill-opacity="0" font-family="Arial,Arial_MSFontService,sans-serif" font-size="48.1606" x="53.5378" y="80.4132">/</text><path d="M127.688 52.1696C125.911 52.1696 124.315 52.8855 122.901 54.3175 121.486 55.7495 120.382 57.6688 119.588 60.0756 118.795 62.4823 118.398 64.8847 118.398 67.2828 118.398 69.0771 118.644 70.4185 119.135 71.307 119.627 72.1955 120.451 72.6398 121.607 72.6398 122.746 72.6398 123.863 72.1481 124.958 71.1647 126.054 70.1813 127.184 68.7795 128.348 66.9594 129.513 65.1392 130.337 63.0387 130.82 60.6578L131.053 59.5451C131.208 58.8377 131.311 58.2252 131.363 57.7076 131.415 57.1901 131.441 56.6294 131.441 56.0255 131.441 54.6971 131.156 53.7223 130.587 53.1012 130.017 52.4801 129.051 52.1696 127.688 52.1696ZM127.171 50.1251C128.292 50.1251 129.34 50.2502 130.315 50.5004 131.29 50.7505 132.295 51.1948 133.33 51.8331L135.711 50.1251 137.367 50.5392 133.563 66.9464C133.183 68.5854 132.994 69.8621 132.994 70.7765 132.994 71.4666 133.106 71.9669 133.33 72.2775 133.554 72.588 133.908 72.7433 134.391 72.7433 134.909 72.7433 135.461 72.532 136.047 72.1093 136.634 71.6866 137.462 70.88 138.532 69.6896L140.007 71.1388C138.454 72.7951 137.13 73.9725 136.034 74.6713 134.939 75.37 133.753 75.7194 132.476 75.7194 131.406 75.7194 130.552 75.3657 129.914 74.6583 129.276 73.951 128.956 73.0107 128.956 71.8375 128.956 70.8886 129.155 69.8794 129.552 68.8097L129.215 68.7062C127.559 71.1216 125.989 72.8899 124.505 74.0114 123.022 75.1328 121.452 75.6935 119.795 75.6935 117.898 75.6935 116.427 74.9775 115.383 73.5455 114.339 72.1136 113.817 70.1036 113.817 67.5158 113.817 64.5483 114.4 61.6973 115.564 58.9628 116.729 56.2282 118.329 54.0717 120.365 52.493 122.4 50.9144 124.669 50.1251 127.171 50.1251ZM97.1986 42.2579C96.129 42.2579 95.0076 42.2838 93.8344 42.3356L90.3148 58.0182 93.0062 58.0182C95.0938 58.0182 96.7803 57.8025 98.0656 57.3712 99.3509 56.9399 100.403 56.2714 101.223 55.3656 102.042 54.4598 102.676 53.3859 103.125 52.1437 103.573 50.9015 103.798 49.5385 103.798 48.0548 103.798 46.0535 103.289 44.587 102.271 43.6554 101.253 42.7238 99.5622 42.2579 97.1986 42.2579ZM86.3554 39.9806 97.768 39.9806C99.821 39.9806 101.507 40.1402 102.827 40.4594 104.147 40.7785 105.234 41.2702 106.088 41.9345 106.942 42.5987 107.58 43.4397 108.003 44.4576 108.426 45.4756 108.637 46.6574 108.637 48.0031 108.637 50.591 108.025 52.8338 106.8 54.7316 105.575 56.6294 103.914 58.0268 101.818 58.924 99.7218 59.8211 97.2073 60.2697 94.2743 60.2697 92.5145 60.2697 91.0481 60.2352 89.8749 60.1661L88.2187 67.7745C88.0634 68.4819 87.9556 69.0254 87.8952 69.4049 87.8348 69.7845 87.783 70.1942 87.7399 70.6342 87.6968 71.0741 87.6752 71.4666 87.6752 71.8117 87.6752 72.3465 87.7615 72.7649 87.934 73.0668 88.1065 73.3687 88.3653 73.5887 88.7104 73.7267 89.0554 73.8647 89.6506 73.9682 90.496 74.0372L90.2113 75.3053 79.5751 75.3053 79.8598 74.0372C80.5154 73.9337 81.0071 73.7655 81.3349 73.5326 81.6627 73.2997 81.9387 72.9762 82.163 72.5621 82.3873 72.1481 82.5943 71.6434 82.7841 71.0482 82.9739 70.453 83.2585 69.3014 83.6381 67.5934L88.0375 47.6666C88.4171 45.9414 88.6068 44.5784 88.6068 43.5778 88.6068 42.7324 88.4084 42.1458 88.0116 41.818 87.6148 41.4902 86.9678 41.3004 86.0707 41.2487Z" fill-rule="evenodd"/><text fill="#000000" fill-opacity="0" font-family="Arial,Arial_MSFontService,sans-serif" font-size="35.7388" x="79.5751" y="71.252">𝑃𝑎</text><path d="M1122.3 649.184 1125.87 649.184 1124.45 655.577 1132.32 655.577 1131.75 658.19 1123.88 658.19 1121.58 668.231C1121.13 670.181 1120.84 671.583 1120.72 672.437 1120.6 673.291 1120.54 673.976 1120.54 674.494 1120.54 676.633 1121.43 677.703 1123.21 677.703 1123.97 677.703 1124.77 677.414 1125.63 676.836 1126.48 676.258 1127.49 675.27 1128.67 673.873L1130.17 675.426C1128.67 677.237 1127.22 678.574 1125.83 679.437 1124.44 680.299 1122.99 680.731 1121.47 680.731 1117.87 680.731 1116.06 678.911 1116.06 675.27 1116.06 674.114 1116.21 672.898 1116.5 671.621L1119.56 658.19 1115.21 658.19 1115.6 656.405C1116.62 656.387 1117.39 656.31 1117.91 656.172 1118.44 656.034 1118.88 655.844 1119.23 655.602 1119.59 655.361 1119.91 655.016 1120.2 654.567 1120.5 654.119 1120.78 653.545 1121.06 652.846 1121.33 652.148 1121.75 650.927 1122.3 649.184Z" fill-rule="evenodd"/><text fill="#000000" fill-opacity="0" font-family="Arial,Arial_MSFontService,sans-serif" font-size="31.5464" x="1115.21" y="676.788">𝑡</text><path d="M1154.82 643.284 1158.83 643.284 1140.15 691.445 1136.09 691.445Z" fill-rule="evenodd"/><text fill="#000000" fill-opacity="0" font-family="Arial,Arial_MSFontService,sans-serif" font-size="48.1606" x="1136.09" y="685.425">/</text><path d="M1175.09 655.162C1176.69 655.162 1178.16 655.257 1179.48 655.447 1180.8 655.637 1182.11 655.965 1183.42 656.431L1182.26 661.865 1180.16 661.865C1179.97 660.33 1179.47 659.165 1178.65 658.371 1177.83 657.578 1176.54 657.181 1174.78 657.181 1173.42 657.181 1172.31 657.53 1171.47 658.229 1170.62 658.928 1170.2 659.847 1170.2 660.985 1170.2 661.606 1170.31 662.154 1170.52 662.629 1170.74 663.103 1171.17 663.625 1171.83 664.194 1172.48 664.764 1173.5 665.462 1174.88 666.29 1175.97 666.946 1176.84 667.546 1177.5 668.089 1178.15 668.632 1178.67 669.172 1179.05 669.706 1179.43 670.241 1179.7 670.806 1179.88 671.401 1180.05 671.997 1180.14 672.717 1180.14 673.562 1180.14 675.098 1179.73 676.413 1178.91 677.509 1178.09 678.604 1176.97 679.42 1175.57 679.954 1174.16 680.489 1172.56 680.757 1170.77 680.757 1169.34 680.757 1167.93 680.649 1166.55 680.433 1165.17 680.218 1163.63 679.851 1161.94 679.333L1163.18 673.692 1165.2 673.692C1165.27 675.348 1165.74 676.599 1166.6 677.444 1167.46 678.29 1168.83 678.712 1170.72 678.712 1172.35 678.712 1173.64 678.346 1174.56 677.612 1175.48 676.879 1175.94 675.84 1175.94 674.494 1175.94 673.718 1175.81 673.049 1175.55 672.488 1175.3 671.928 1174.87 671.389 1174.29 670.871 1173.7 670.353 1172.77 669.706 1171.49 668.93 1170.15 668.119 1169.1 667.386 1168.35 666.73 1167.6 666.075 1167.03 665.363 1166.65 664.595 1166.27 663.828 1166.08 662.943 1166.08 661.943 1166.08 660.58 1166.45 659.385 1167.18 658.359 1167.92 657.332 1168.96 656.543 1170.33 655.991 1171.69 655.439 1173.28 655.162 1175.09 655.162Z" fill-rule="evenodd"/><text fill="#000000" fill-opacity="0" font-family="Arial,Arial_MSFontService,sans-serif" font-size="25.5942" x="1161.94" y="677.557">𝑠</text><path d="M143 369.959C167.368 277.225 192.687 182.967 235.521 191.544 278.355 200.122 341.368 381.396 400.003 421.425L655.864 426C655.483 403.317 662.336 394.93 661.575 373.39 709.929 375.868 883.549 371.103 930 371.103" stroke="#000000" stroke-width="4" stroke-linejoin="round" stroke-miterlimit="10" fill="none" fill-rule="evenodd"/><path d="M144.5 371.5 1053.07 371.5" stroke="#000000" stroke-width="3" stroke-linejoin="round" stroke-miterlimit="10" stroke-dasharray="12 9" fill="none" fill-rule="evenodd"/><text font-family="DengXian,DengXian_MSFontService,sans-serif" font-weight="400" font-size="53" transform="translate(1062.17 389)">大气压</text></g></svg>