<svg width="1280" height="720" xmlns="http://www.w3.org/2000/svg" xmlns:xlink="http://www.w3.org/1999/xlink" overflow="hidden"><defs><clipPath id="clip0"><rect x="0" y="0" width="1280" height="720"/></clipPath></defs><g clip-path="url(#clip0)"><rect x="0" y="0" width="1280" height="720" fill="#FFFFFF"/><path d="M1.32532-1.49784 283.771 248.417 281.12 251.413-1.32532 1.49784ZM279.997 236.095 285.418 252.546 268.43 249.167C267.346 248.952 266.643 247.899 266.858 246.816 267.074 245.732 268.127 245.029 269.21 245.244L282.836 247.954 280.546 250.541 276.198 237.347C275.852 236.298 276.422 235.167 277.471 234.821 278.52 234.476 279.651 235.046 279.997 236.095Z" transform="matrix(1 0 0 -1 537 487.539)"/><text font-family="DengXian,DengXian_MSFontService,sans-serif" font-weight="400" font-size="64" transform="translate(831.563 179)">用手握住试管<tspan x="0" y="77">有小气泡出现</tspan><tspan x="0" y="153">证明密闭性好</tspan></text><path d="M505 525.5C505 518.044 510.82 512 518 512 525.18 512 531 518.044 531 525.5 531 532.956 525.18 539 518 539 510.82 539 505 532.956 505 525.5Z" stroke="#000000" stroke-width="4" stroke-miterlimit="8" fill="none" fill-rule="evenodd"/><path d="M376.16 323C376.549 377.128 374.083 594.375 375.381 658.45 385.896 684.101 396.282 685.357 413.548 692.372L605.163 693C620.871 685.985 639.306 680.436 639.435 654.681 641.902 592.491 635.281 375.558 638.656 323.628" stroke="#000000" stroke-width="4" stroke-miterlimit="8" fill="none" fill-rule="evenodd"/><path d="M375 412 639.851 412" stroke="#000000" stroke-width="4" stroke-miterlimit="8" fill="none" fill-rule="evenodd"/><path d="M315 56 490.159 56 490.159 512.792" stroke="#000000" stroke-width="4" stroke-miterlimit="8" fill="none" fill-rule="evenodd"/><rect x="211" y="18" width="208" height="52" stroke="#000000" stroke-width="4" stroke-miterlimit="8" fill="none"/><path d="M319 36 510.985 36 510.985 512.653" stroke="#000000" stroke-width="4" stroke-miterlimit="8" fill="none" fill-rule="evenodd"/><path d="M120.634 692.341 120.634 692.341C90.3737 692.607 65.6275 668.293 65.3615 638.033L61.8304 236.381 171.412 235.418 174.943 637.069C175.209 667.329 150.894 692.075 120.634 692.341Z" stroke="#000000" stroke-width="4" stroke-miterlimit="8" fill="#FFFFFF" fill-rule="evenodd"/><path d="M0 0 175.159 0 175.159 284.668" stroke="#000000" stroke-width="4" stroke-miterlimit="8" fill="none" fill-rule="evenodd" transform="matrix(-1 -8.74228e-08 -8.74228e-08 1 303.159 56)"/><path d="M0 0 191.985 0 191.985 311.148" stroke="#000000" stroke-width="4" stroke-miterlimit="8" fill="none" fill-rule="evenodd" transform="matrix(-1 -8.74228e-08 -8.74228e-08 1 295.985 32)"/><path d="M161.174 292.379 72.8386 293.156C67.0187 293.207 62.2593 288.531 62.2082 282.711L61.8009 236.383 171.212 235.421 171.619 281.749C171.67 287.569 166.994 292.328 161.174 292.379Z" stroke="#000000" stroke-width="4" stroke-miterlimit="8" fill="#FFFFFF" fill-rule="evenodd"/><path d="M523 494C523 489.582 526.582 486 531 486 535.418 486 539 489.582 539 494 539 498.418 535.418 502 531 502 526.582 502 523 498.418 523 494Z" stroke="#000000" stroke-width="4" stroke-miterlimit="8" fill="none" fill-rule="evenodd"/></g></svg>