<svg width="1280" height="720" xmlns="http://www.w3.org/2000/svg" xmlns:xlink="http://www.w3.org/1999/xlink" overflow="hidden"><defs><clipPath id="clip0"><rect x="0" y="0" width="1280" height="720"/></clipPath></defs><g clip-path="url(#clip0)"><rect x="0" y="0" width="1280" height="720" fill="#FFFFFF"/><path d="M268.99 315C269.993 369.128 263.636 586.375 266.982 650.45 294.084 676.101 320.852 677.357 365.353 684.372L859.212 685C899.698 677.985 947.211 672.436 947.545 646.681 953.903 584.491 936.838 367.558 945.537 315.628" stroke="#000000" stroke-width="4" stroke-miterlimit="8" fill="none" fill-rule="evenodd"/><path d="M1.15554 0C1.54359 54.1284-0.913765 271.375 0.37962 335.45 10.8552 361.101 21.2019 362.357 38.4029 369.372L229.294 370C244.943 362.985 263.308 357.436 263.438 331.681 265.895 269.491 259.299 52.5579 262.661 0.628134" stroke="#000000" stroke-width="4" stroke-miterlimit="8" fill="none" fill-rule="evenodd" transform="matrix(1 0 0 -1 508 574)"/><path d="M269 215.87 443.549 652.834 492.606 678 563.338 672.281 605.549 647.115 674 504.129 642.056 489.259 573.606 637.964 516.563 649.403 486.901 645.971 465.225 635.676 290.676 201 269 215.87Z" stroke="#000000" stroke-width="4" stroke-miterlimit="8" fill="none" fill-rule="evenodd"/><path d="M289 398 970.143 406.324" stroke="#000000" stroke-width="4" stroke-miterlimit="8" fill="none" fill-rule="evenodd"/><path d="M649 465C649 451.745 659.521 441 672.5 441 685.479 441 696 451.745 696 465 696 478.255 685.479 489 672.5 489 659.521 489 649 478.255 649 465Z" stroke="#000000" stroke-width="4" stroke-miterlimit="8" fill="none" fill-rule="evenodd"/><path d="M675 424C675 417.373 680.596 412 687.5 412 694.404 412 700 417.373 700 424 700 430.627 694.404 436 687.5 436 680.596 436 675 430.627 675 424Z" stroke="#000000" stroke-width="4" stroke-miterlimit="8" fill="none" fill-rule="evenodd"/></g></svg>