<svg width="1280" height="720" xmlns="http://www.w3.org/2000/svg" xmlns:xlink="http://www.w3.org/1999/xlink" overflow="hidden"><defs><clipPath id="clip0"><rect x="0" y="0" width="1280" height="720"/></clipPath></defs><g clip-path="url(#clip0)"><rect x="0" y="0" width="1280" height="720" fill="#FFFFFF"/><path d="M117.833 477 215.167 477C216.731 477 218 478.269 218 479.833L218 494 115 494 115 479.833C115 478.269 116.269 477 117.833 477Z" stroke="#000000" stroke-width="4" stroke-miterlimit="8" fill="none" fill-rule="evenodd"/><path d="M132.578 455.436C132.792 453.691 133.341 450.546 133.865 449.852 135.402 447.814 137.297 446.129 139.012 444.268L141.586 441.475C142.659 440.312 143.503 438.832 144.803 437.985L148.021 435.891C154.173 426.992 144.308 440.617 153.812 430.307 156.5 427.391 155.196 429.003 157.672 425.421 159.025 416.615 159.079 418.021 157.672 403.783 157.59 402.949 156.769 402.417 156.385 401.689 155.909 400.785 155.527 399.827 155.099 398.897 153.328 387.371 155.396 399.488 153.812 392.614 153.546 391.463 152.258 389.782 153.168 389.124 154.06 388.479 154.884 390.52 155.742 391.218 155.956 391.916 155.906 392.792 156.385 393.312 157.453 394.47 159.543 394.781 160.889 395.406 165.802 397.691 160.96 396.415 167.967 397.501L171.828 398.897C172.471 399.129 173.152 399.266 173.758 399.595 174.616 400.06 175.422 400.662 176.332 400.991 177.37 401.366 178.494 401.376 179.549 401.689 180.858 402.076 183.41 403.085 183.41 403.085 184.053 403.55 184.711 403.993 185.34 404.481 186.213 405.157 186.983 405.997 187.914 406.575 188.503 406.94 189.201 407.04 189.844 407.273 193.276 412.857 188.772 406.11 193.061 410.763 193.608 411.356 193.853 412.212 194.348 412.857 194.931 413.615 195.635 414.253 196.279 414.951 197.809 419.93 195.639 413.91 198.852 419.139 199.229 419.751 199.193 420.575 199.496 421.233 199.842 421.983 200.437 422.577 200.783 423.327 201.295 424.438 203.206 430.027 203.357 431.005L204 435.193C203.785 440.079 203.894 444.995 203.357 449.852 203.242 450.885 202.563 451.751 202.07 452.644 201.274 454.082 199.496 456.832 199.496 456.832 198.924 459.313 198.777 461.101 196.922 463.114 195.828 464.3 194.529 465.375 193.061 465.906 185.126 468.775 190.556 467.228 176.332 468L150.594 467.302C145.238 467.044 149.407 466.57 144.803 465.208 143.34 464.775 141.801 464.743 140.299 464.51L136.439 463.114 134.508 462.416C133.865 461.718 133.083 461.143 132.578 460.322 131.392 458.392 132.364 457.181 132.578 455.436Z" fill="#ED7D31" fill-rule="evenodd"/><path d="M142.267 461.82C143.46 459.966 146.986 456.468 149.429 455.022 149.975 454.699 150.623 454.61 151.22 454.404L154.801 451.933C155.398 451.521 156.161 451.291 156.591 450.697 158.582 447.948 160.647 445.225 161.963 442.045 162.893 439.798 162.551 439.303 163.157 436.483 163.293 435.847 163.601 435.261 163.754 434.629 164 433.61 164.131 432.565 164.351 431.539 164.529 430.71 164.722 429.884 164.947 429.067 165.12 428.441 165.392 427.845 165.544 427.213L166.738 422.27C167.084 417.261 164.717 413 169.722 413 170.543 413 171.314 413.412 172.11 413.618 172.309 414.236 172.425 414.889 172.707 415.472 173.257 416.612 174.701 418.496 175.691 419.18 176.478 419.723 180.035 420.327 180.466 420.416 181.262 421.034 182.044 421.671 182.853 422.27 183.437 422.701 184.137 422.98 184.644 423.506 185.151 424.031 185.378 424.789 185.838 425.36 187.274 427.144 187.658 427.234 189.419 428.449 190.935 436.297 188.671 427.551 191.806 433.393 192.417 434.532 193 437.101 193 437.101 192.72 442.034 192.822 446.584 191.806 451.315 191.67 451.951 191.382 452.542 191.209 453.169 191.028 453.827 190.436 456.71 190.016 457.494 189.319 458.793 187.628 461.202 187.628 461.202 187.143 462.71 186.995 463.712 185.838 464.91 185.33 465.435 184.703 465.844 184.047 466.146 181.21 467.452 179.887 467.482 176.885 468 166.539 467.794 156.182 467.935 145.848 467.382 144.591 467.315 142.267 466.146 142.267 466.146 140.145 464.682 141.073 463.674 142.267 461.82Z" fill="#FFC000" fill-rule="evenodd"/><path d="M152.002 468.363C151.903 468.576 154.845 468.239 156.161 467.727 157.74 467.111 159.084 465.01 160.319 463.906 165.281 459.474 158.677 466.303 163.883 460.723 164.929 457.361 164.13 459.371 166.853 454.993L168.041 453.082C168.24 452.021 168.493 450.97 168.636 449.899 168.889 447.996 168.235 445.768 169.23 444.169 169.696 443.419 170.496 445.368 171.012 446.079 174.744 451.221 171.72 448.707 175.17 451.172L176.358 454.993 176.952 456.903C176.754 459.874 177.472 463.087 176.358 465.816 175.856 467.046 173.982 466.665 172.794 467.09 172.2 467.302 171.632 467.632 171.012 467.727L162.695 469C161.309 468.788 159.837 468.921 158.537 468.363 157.757 468.029 157.563 466.701 156.755 466.453 153.994 465.608 152.101 468.151 152.002 468.363Z" fill="#FFFF00" fill-rule="evenodd"/><path d="M134.833 460 199.167 460C200.731 460 202 461.269 202 462.833L202 477 132 477 132 462.833C132 461.269 133.269 460 134.833 460Z" stroke="#000000" stroke-width="4" stroke-miterlimit="8" fill="#FFFFFF" fill-rule="evenodd"/><path d="M25.6007 582.881C41.0061 546.971 91.5066 514.185 116.461 494L217.031 494.101C241.597 511.917 287.139 541.679 305.378 585.149 312.169 617.54 261.179 657.277 258.511 685.773 258.787 695.553 259.422 698.725 258.453 708L75.303 708C76.1714 702.624 76.3936 697.268 75.9614 686.442 77.0014 662.915 18.4827 614.509 25.6007 582.881Z" stroke="#000000" stroke-width="4" stroke-miterlimit="8" fill="none" fill-rule="evenodd"/><path d="M155.021 497.045C154.078 498.182 154.314 500.054 154.314 501.59 154.314 510.602 154.463 519.293 155.727 528.102 155.91 529.374 156.198 530.626 156.434 531.889 156.669 534.666 156.955 537.439 157.141 540.221 157.426 544.51 157.484 548.816 157.847 553.098 157.975 554.609 158.884 558.302 159.26 559.915 158.789 568.752 158.712 577.624 157.847 586.426 157.758 587.332 156.724 587.843 156.434 588.699 155.77 590.656 156.098 593.026 155.021 594.759 154.55 595.516 153.987 596.217 153.607 597.031 153.043 598.242 152.496 601.201 152.194 602.333 151.989 603.101 151.871 603.921 151.487 604.606 151.145 605.218 150.545 605.616 150.074 606.121 149.839 606.878 149.572 607.625 149.368 608.393 149.101 609.394 149.044 610.466 148.661 611.423 148.326 612.26 147.719 612.938 147.248 613.695 145.472 619.407 147.867 612.367 145.128 618.24 144.795 618.954 144.715 619.778 144.421 620.512 141.801 627.065 143.959 620.485 142.301 625.815 142.066 627.835 141.934 629.872 141.595 631.874 141.461 632.66 141.034 633.364 140.888 634.147 140.561 635.897 140.471 637.691 140.181 639.449 139.764 641.985 138.768 647.024 138.768 647.024 138.113 654.747 137.43 657.833 138.768 665.96 138.916 666.857 139.802 667.418 140.181 668.233 140.514 668.947 140.505 669.82 140.888 670.505 141.231 671.117 141.885 671.462 142.301 672.02 142.832 672.731 143.114 673.649 143.715 674.292 146.067 676.814 145.368 675.025 147.954 676.565 149.439 677.449 150.675 678.78 152.194 679.595 156.353 681.824 154.022 680.753 159.26 682.625 159.967 682.877 160.637 683.325 161.38 683.382L171.273 684.139C172.215 684.392 173.166 684.611 174.1 684.897 174.816 685.116 175.492 685.481 176.22 685.654 177.618 685.988 179.046 686.159 180.459 686.412 184.935 686.159 190.156 688.319 193.885 685.654 199.062 681.955 193.398 677.061 191.059 675.807 190.393 675.45 189.646 675.302 188.939 675.05 188.232 674.545 187.64 673.77 186.819 673.535 184.873 672.979 176.424 671.727 173.393 671.263 172.686 671.01 171.992 670.715 171.273 670.505 169.399 669.957 167.463 669.649 165.62 668.99L161.38 667.475 159.26 666.718C158.318 665.96 157.267 665.338 156.434 664.445 151.723 659.396 158.554 664.698 152.901 660.658 152.43 659.648 151.765 658.718 151.487 657.628 150.754 654.745 150.157 643.636 150.074 642.479 150.232 641.124 150.756 633.416 152.194 631.874 152.665 631.369 153.191 630.917 153.607 630.359 154.939 628.575 155.467 627.13 156.434 625.057 156.516 624.441 157.181 618.154 157.847 616.725 158.145 616.086 158.789 615.715 159.26 615.21 161.036 609.498 158.641 616.539 161.38 610.665 161.713 609.951 161.754 609.107 162.087 608.393 162.467 607.579 163.079 606.911 163.5 606.121 165.782 601.84 163.808 604.276 166.327 601.576 166.562 600.818 166.65 599.988 167.033 599.303 167.376 598.691 168.213 598.457 168.447 597.788 168.95 596.35 168.842 594.743 169.153 593.244 169.315 592.464 169.624 591.729 169.86 590.971 171.42 574.247 171.4 577.579 169.86 550.068 169.771 548.474 168.739 547.089 168.447 545.523 168.211 544.261 168.056 542.978 167.74 541.736 167.348 540.195 166.798 538.706 166.327 537.191L165.62 534.919C165.024 500.405 177.489 491.017 159.967 494.773 154.944 495.85 155.963 495.909 155.021 497.045Z" stroke="#000000" stroke-width="4" stroke-miterlimit="8" fill="none" fill-rule="evenodd"/><path d="M33 565C33 558.925 91.4268 554 163.5 554 235.573 554 294 558.925 294 565 294 571.075 235.573 576 163.5 576 91.4268 576 33 571.075 33 565Z" stroke="#000000" stroke-width="4" stroke-miterlimit="8" fill="none" fill-rule="evenodd"/><path d="M218.924 565.763C212.862 569.284 183.134 571.573 152.525 570.876 121.915 570.179 102.015 566.759 108.076 563.237 112.345 560.757 128.725 558.787 150.07 558.186" stroke="#000000" stroke-width="4" stroke-miterlimit="8" fill="none" fill-rule="evenodd"/><path d="M18.9728 0.106807C33.6111-0.249306 49.5193 0.309626 54.5049 1.35522 59.4905 2.4008 51.6654 3.53711 37.0272 3.89322 36.5058 3.90591 35.9792 3.91749 35.4482 3.92796" stroke="#000000" stroke-width="4" stroke-miterlimit="8" fill="none" fill-rule="evenodd" transform="matrix(1 0 0 -1 143 565)"/><path d="M28.8575 4.99981C13.1186 5.01713 0.199695 3.91197 0.00227088 2.53137-0.121971 1.66253 4.90557 0.850348 13.2804 0.386333" stroke="#000000" stroke-width="4" stroke-miterlimit="8" fill="none" fill-rule="evenodd" transform="matrix(1 0 0 -1 136 567)"/><path d="M114 508C103.55 514.851 93.1001 521.703 86.7667 526.87 80.4333 532.036 78.9556 537.315 76 539" stroke="#000000" stroke-width="4" stroke-miterlimit="8" fill="none" fill-rule="evenodd"/><path d="M76 687 259.208 687" stroke="#000000" stroke-width="4" stroke-miterlimit="8" fill="none" fill-rule="evenodd"/><path d="M294.636 572.797C286.386 576.327 266.926 579.399 239.901 581.438" stroke="#000000" stroke-width="4" stroke-miterlimit="8" fill="none" fill-rule="evenodd"/><path d="M205.28 37.5336 362.538 138.669 328.964 190.873 171.707 89.737Z" fill="#FFFFFF" fill-rule="evenodd"/><path d="M362.538 138.669 376.278 135.685 342.705 187.888 328.964 190.873Z" fill="#CDCDCD" fill-rule="evenodd"/><path d="M205.28 37.5336 219.021 34.5493 376.278 135.685 362.538 138.669Z" fill="#FFFFFF" fill-rule="evenodd"/><path d="M205.28 37.5336 219.021 34.5493 376.278 135.685 342.705 187.888 328.964 190.873 171.707 89.737ZM205.28 37.5336 362.538 138.669 376.278 135.685M362.538 138.669 328.964 190.873" stroke="#000000" stroke-width="4" stroke-miterlimit="8" fill="none" fill-rule="evenodd"/><path d="M148.457 383.432 148.457 383.432C136.795 375.65 133.649 359.886 141.432 348.224L334.572 58.7995 376.805 86.9826 183.666 376.407C175.883 388.07 160.12 391.215 148.457 383.432Z" stroke="#000000" stroke-width="4" stroke-miterlimit="8" fill="#FFFFFF" fill-rule="evenodd"/><path d="M189.102 41.5143 348.044 143.734 314.111 196.496 155.169 94.277Z" fill="#FFFFFF" fill-rule="evenodd"/><path d="M348.044 143.734 361.931 140.717 327.999 193.48 314.111 196.496Z" fill="#CDCDCD" fill-rule="evenodd"/><path d="M189.102 41.5143 202.989 38.498 361.931 140.717 348.044 143.734Z" fill="#FFFFFF" fill-rule="evenodd"/><path d="M189.102 41.5143 202.989 38.498 361.931 140.717 327.999 193.48 314.111 196.496 155.169 94.277ZM189.102 41.5143 348.044 143.734 361.931 140.717M348.044 143.734 314.111 196.496" stroke="#000000" stroke-width="4" stroke-miterlimit="8" fill="none" fill-rule="evenodd"/><path d="M193 275 253.126 275" stroke="#000000" stroke-width="4" stroke-miterlimit="8" fill="none" fill-rule="evenodd"/><path d="M0.554749-1.92152 295.386 83.197 294.276 87.04-0.554749 1.92152ZM286.694 73.6853 298.648 86.2203 281.852 90.4555C280.781 90.7256 279.694 90.0762 279.424 89.0052 279.154 87.9342 279.803 86.847 280.874 86.5769L294.345 83.18 293.387 86.4996 283.799 76.4458C283.037 75.6464 283.067 74.3804 283.866 73.6181 284.666 72.8558 285.932 72.8859 286.694 73.6853Z" transform="matrix(1 0 0 -1 359 164.218)"/><text font-family="DengXian,DengXian_MSFontService,sans-serif" font-weight="400" font-size="64" transform="translate(667.609 91)">夹在中上部</text><path d="M273.654 241.11 679.489 381.445 678.182 385.226 272.346 244.89ZM671.304 371.497 682.592 384.635 665.6 387.993C664.516 388.208 663.464 387.503 663.25 386.419 663.036 385.336 663.741 384.283 664.824 384.069L678.453 381.375 677.324 384.641 668.271 374.103C667.551 373.266 667.646 372.003 668.484 371.283 669.322 370.563 670.585 370.659 671.304 371.497Z"/><text font-family="DengXian,DengXian_MSFontService,sans-serif" font-weight="400" font-size="64" transform="translate(692.373 398)">液体不超过</text><path d="M1061.82 314.344 1063.55 314.344C1063.51 315.382 1063.48 316.312 1063.47 317.133 1063.45 317.954 1063.43 318.752 1063.42 319.526 1063.41 320.3 1063.41 321.065 1063.41 321.82L1063.41 343.344C1063.41 343.929 1063.43 344.434 1063.47 344.859 1063.5 345.283 1063.56 345.642 1063.65 345.935 1063.73 346.227 1063.85 346.478 1063.99 346.685 1064.13 346.893 1064.3 347.072 1064.48 347.223 1064.71 347.45 1065.01 347.625 1065.39 347.747 1065.77 347.87 1066.25 347.974 1066.84 348.059 1067.42 348.144 1068.12 348.21 1068.95 348.257 1069.77 348.304 1070.75 348.337 1071.9 348.356L1071.9 350.82 1049.45 350.82 1049.45 348.356C1050.56 348.318 1051.5 348.276 1052.28 348.229 1053.05 348.182 1053.71 348.116 1054.26 348.031 1054.81 347.946 1055.25 347.851 1055.58 347.747 1055.91 347.643 1056.2 347.516 1056.44 347.365 1056.71 347.195 1056.93 347.011 1057.12 346.813 1057.31 346.615 1057.46 346.364 1057.57 346.062 1057.69 345.76 1057.78 345.392 1057.84 344.958 1057.91 344.524 1057.94 343.985 1057.94 343.344L1057.94 323.038C1057.94 322.302 1057.8 321.782 1057.52 321.48 1057.23 321.178 1056.83 321.027 1056.3 321.027 1055.71 321.027 1054.85 321.329 1053.69 321.933 1052.54 322.538 1051.05 323.434 1049.22 324.624 1048.97 324.19 1048.75 323.755 1048.54 323.321 1048.33 322.887 1048.12 322.443 1047.89 321.99 1050.23 320.706 1052.55 319.427 1054.84 318.153 1057.14 316.878 1059.46 315.609 1061.82 314.344Z" fill-rule="evenodd"/><text fill="#000000" fill-opacity="0" font-family="Arial,Arial_MSFontService,sans-serif" font-size="36.4766" x="1047.89" y="346.261">1</text><path d="M1059.56 401.252C1061.07 401.252 1062.48 401.412 1063.79 401.733 1065.1 402.054 1066.24 402.541 1067.2 403.192 1068.17 403.843 1068.92 404.655 1069.45 405.627 1069.99 406.6 1070.26 407.728 1070.26 409.012 1070.26 410.22 1070.09 411.287 1069.75 412.212 1069.41 413.137 1068.89 413.977 1068.18 414.732 1067.47 415.488 1066.6 416.172 1065.58 416.786 1064.55 417.399 1063.36 417.989 1062.02 418.556L1062.02 418.896C1063.29 419.122 1064.47 419.486 1065.56 419.986 1066.66 420.486 1067.61 421.119 1068.44 421.883 1069.26 422.648 1069.9 423.531 1070.38 424.531 1070.85 425.532 1071.08 426.636 1071.08 427.845 1071.08 429.355 1070.8 430.757 1070.23 432.05 1069.67 433.344 1068.82 434.462 1067.68 435.406 1066.55 436.35 1065.16 437.087 1063.49 437.615 1061.83 438.144 1059.89 438.408 1057.66 438.408 1055.9 438.408 1054.12 438.234 1052.31 437.884 1050.49 437.535 1048.78 437.077 1047.15 436.511L1047.15 430.394 1050.81 430.394C1051.11 431.338 1051.47 432.145 1051.88 432.815 1052.3 433.485 1052.78 434.033 1053.34 434.458 1053.9 434.882 1054.54 435.189 1055.27 435.378 1055.99 435.567 1056.82 435.661 1057.74 435.661 1060.18 435.661 1062.03 435.081 1063.28 433.919 1064.54 432.758 1065.16 430.998 1065.16 428.638 1065.16 426.127 1064.34 424.224 1062.69 422.931 1061.03 421.638 1058.58 420.991 1055.34 420.991L1052.85 420.991 1052.85 418.272C1054.83 418.178 1056.54 417.9 1057.99 417.437 1059.43 416.974 1060.63 416.375 1061.6 415.639 1062.56 414.902 1063.28 414.043 1063.75 413.062 1064.22 412.08 1064.46 411.032 1064.46 409.918 1064.46 408.105 1063.92 406.675 1062.84 405.627 1061.77 404.58 1060.21 404.056 1058.17 404.056 1056.45 404.056 1055.01 404.528 1053.85 405.472 1052.69 406.416 1051.8 407.822 1051.17 409.691L1047.58 409.691 1047.58 404.112C1049.81 403.168 1051.91 402.456 1053.88 401.974 1055.85 401.493 1057.74 401.252 1059.56 401.252Z" fill-rule="evenodd"/><text fill="#000000" fill-opacity="0" font-family="Arial,Arial_MSFontService,sans-serif" font-size="37.1563" x="1047.15" y="433.764">3</text><path d="M1030.37 372.693 1090.37 372.693 1090.37 377.693 1030.37 377.693Z" fill="#836967" fill-rule="evenodd"/></g></svg>