<svg width="1280" height="720" xmlns="http://www.w3.org/2000/svg" xmlns:xlink="http://www.w3.org/1999/xlink" overflow="hidden"><defs><clipPath id="clip0"><rect x="0" y="0" width="1280" height="720"/></clipPath></defs><g clip-path="url(#clip0)"><rect x="0" y="0" width="1280" height="720" fill="#FFFFFF"/><path d="M240.384 232.334C240.384 215.581 251.595 202 265.425 202L487.959 202C501.789 202 513 215.581 513 232.334L513 353.666C513 370.419 501.789 384 487.959 384L265.425 384C251.595 384 240.384 370.419 240.384 353.666 239.24 340.701 240.275 337.165 240.183 317.768 220.182 316.922 194.183 321.835 197.422 306.21 196.774 291.869 196.951 292.225 197.422 271.534 194.713 253.84 218.592 261.372 239.829 260.404 239.779 244.626 240.435 248.112 240.384 232.334Z" stroke="#000000" stroke-width="4" stroke-miterlimit="8" fill="none" fill-rule="evenodd"/><path d="M411.166 298 351.834 298C343.641 298 337 291.359 337 283.166L337 203 426 203 426 283.166C426 291.359 419.359 298 411.166 298Z" stroke="#000000" stroke-width="4" stroke-miterlimit="8" fill="none" fill-rule="evenodd"/><path d="M45.8783 670.539 45.8783 670.539C31.5905 665.587 24.0226 649.99 28.9748 635.702L145.952 298.213 197.692 316.147 80.7156 653.635C75.7633 667.923 60.1662 675.491 45.8783 670.539Z" stroke="#000000" stroke-width="4" stroke-miterlimit="8" fill="none" fill-rule="evenodd"/><path d="M346 680 363.75 609 443.25 609 461 680Z" stroke="#000000" stroke-width="4" stroke-miterlimit="8" fill="none" fill-rule="evenodd"/><path d="M1.00675-1.72814 227.518 130.229 225.504 133.685-1.00675 1.72814ZM221.406 118.882 229.94 133.954 212.619 133.965C211.515 133.965 210.619 133.07 210.618 131.966 210.618 130.861 211.513 129.965 212.617 129.965L226.51 129.956 224.77 132.942 217.925 120.853C217.381 119.892 217.719 118.671 218.68 118.127 219.641 117.583 220.862 117.921 221.406 118.882Z" transform="matrix(1 0 0 -1 382 202.95)"/><path d="M0.964059-1.75231 240.966 130.288 239.038 133.793-0.964059 1.75231ZM234.579 119.096 243.48 133.954 226.165 134.389C225.06 134.417 224.143 133.544 224.115 132.44 224.087 131.336 224.96 130.418 226.064 130.39L239.952 130.042 238.287 133.069 231.147 121.151C230.58 120.204 230.888 118.976 231.835 118.408 232.783 117.84 234.011 118.148 234.579 119.096Z" transform="matrix(1 0 0 -1 404 608.95)"/><path d="M211.917 330.429 239.471 422.921 235.638 424.064 208.083 331.571ZM242.78 410.466 238.688 427.297 226.052 415.45C225.246 414.694 225.205 413.428 225.961 412.623 226.716 411.817 227.982 411.776 228.788 412.532L238.922 422.033 235.611 423.02 238.894 409.521C239.155 408.448 240.236 407.789 241.309 408.05 242.383 408.311 243.041 409.393 242.78 410.466Z"/><path d="M178 317C178 306.507 186.283 298 196.5 298 206.717 298 215 306.507 215 317 215 327.493 206.717 336 196.5 336 186.283 336 178 327.493 178 317Z" stroke="#000000" stroke-width="4" stroke-miterlimit="8" fill="none" fill-rule="evenodd"/><text font-family="DengXian,DengXian_MSFontService,sans-serif" font-weight="400" font-size="64" transform="translate(210.149 493)">紧挨<tspan x="411.002" y="-425">标签朝上</tspan><tspan x="411.002" y="-348">手心朝下</tspan><tspan x="446.43" y="17">瓶塞倒放</tspan></text><rect x="351" y="205" width="36" height="80" fill="#A5A5A5"/><rect x="400" y="205" width="14" height="80" fill="#A5A5A5"/></g></svg>