<svg width="1280" height="720" xmlns="http://www.w3.org/2000/svg" xmlns:xlink="http://www.w3.org/1999/xlink" overflow="hidden"><defs><clipPath id="clip0"><rect x="0" y="0" width="1280" height="720"/></clipPath></defs><g clip-path="url(#clip0)"><rect x="0" y="0" width="1280" height="720" fill="#FFFFFF"/><path d="M2-3.25181e-07 2.0001 641.755-1.9999 641.755-2 3.25181e-07ZM8.72766 630.762 0.000104754 645.724-8.72746 630.762C-9.28402 629.808-8.96174 628.583-8.00764 628.027-7.05354 627.47-5.8289 627.792-5.27234 628.747L1.72766 640.747-1.72745 640.747 5.27254 628.747C5.8291 627.792 7.05374 627.47 8.00784 628.027 8.96195 628.583 9.28422 629.808 8.72766 630.762Z" transform="matrix(1 0 0 -1 429 682.714)"/><path d="M456.027 174.482 487.91 174.482 487.91 177.924 456.027 177.924Z" fill-rule="evenodd"/><text fill="#000000" fill-opacity="0" font-family="Arial,Arial_MSFontService,sans-serif" font-size="3.44189" x="456.027" y="177.494">−</text><path d="M536.678 174.12C535.401 174.12 534.327 174.318 533.456 174.715 532.585 175.112 531.878 175.646 531.334 176.319 530.791 176.992 530.402 177.781 530.17 178.687 529.937 179.593 529.82 180.563 529.82 181.599 529.82 182.72 529.95 183.768 530.208 184.743 530.467 185.718 530.877 186.559 531.438 187.266 531.998 187.973 532.719 188.534 533.599 188.948 534.478 189.362 535.548 189.569 536.807 189.569 538.222 189.569 539.434 189.28 540.443 188.702 541.453 188.124 542.221 187.266 542.747 186.127 543.273 184.989 543.536 183.643 543.536 182.09 543.536 180.434 543.251 179.006 542.682 177.807 542.113 176.608 541.31 175.694 540.275 175.064 539.24 174.434 538.041 174.12 536.678 174.12ZM536.807 157.816C534.634 157.816 532.973 158.407 531.826 159.589 530.679 160.77 530.105 162.448 530.105 164.622 530.105 165.64 530.226 166.597 530.467 167.495 530.709 168.392 531.097 169.168 531.632 169.824 532.167 170.479 532.861 171.001 533.715 171.389 534.569 171.778 535.617 171.972 536.859 171.972 538.291 171.972 539.495 171.691 540.469 171.131 541.444 170.57 542.169 169.75 542.643 168.672 543.118 167.594 543.355 166.347 543.355 164.933 543.355 163.38 543.075 162.064 542.514 160.986 541.953 159.908 541.181 159.11 540.198 158.592 539.214 158.075 538.084 157.816 536.807 157.816ZM565.782 155.616C567.731 155.616 569.439 155.918 570.906 156.522 572.372 157.126 573.494 157.993 574.27 159.123 575.046 160.253 575.434 161.603 575.434 163.173 575.434 164.639 575.141 165.929 574.555 167.042 573.968 168.155 573.144 169.125 572.083 169.953 571.022 170.781 569.646 171.592 567.955 172.386L567.955 172.619C569.008 172.808 570.021 173.132 570.996 173.589 571.971 174.046 572.838 174.637 573.597 175.362 574.356 176.086 574.964 176.953 575.422 177.963 575.879 178.972 576.107 180.124 576.107 181.417 576.107 183.419 575.672 185.196 574.8 186.749 573.929 188.301 572.596 189.526 570.802 190.423 569.008 191.32 566.825 191.769 564.255 191.769 562.771 191.769 561.171 191.601 559.454 191.264 557.738 190.928 556.163 190.484 554.731 189.932L554.731 184.445 557.837 184.445C558.441 186.24 559.239 187.542 560.231 188.353 561.223 189.164 562.573 189.569 564.281 189.569 566.523 189.569 568.219 188.957 569.366 187.732 570.513 186.507 571.087 184.695 571.087 182.297 571.087 179.778 570.328 177.855 568.809 176.526 567.291 175.198 565.066 174.534 562.133 174.534L559.804 174.534 559.804 172.256C562.133 172.118 564.095 171.67 565.691 170.911 567.287 170.152 568.473 169.177 569.249 167.986 570.026 166.796 570.414 165.459 570.414 163.975 570.414 162.06 569.905 160.585 568.887 159.55 567.869 158.515 566.385 157.997 564.436 157.997 562.814 157.997 561.494 158.437 560.476 159.317 559.459 160.197 558.708 161.542 558.225 163.354L555.12 163.354 555.12 158.437C557.121 157.488 558.993 156.781 560.735 156.315 562.478 155.849 564.16 155.616 565.782 155.616ZM536.859 155.616C539.344 155.616 541.431 155.966 543.122 156.664 544.813 157.363 546.085 158.372 546.939 159.692 547.793 161.012 548.22 162.595 548.22 164.441 548.22 166.339 547.754 167.973 546.823 169.345 545.891 170.717 544.45 171.834 542.501 172.696L542.553 173.033C544.502 173.792 545.977 174.9 546.978 176.358 547.979 177.816 548.479 179.571 548.479 181.624 548.479 183.643 547.996 185.42 547.03 186.956 546.064 188.491 544.662 189.677 542.824 190.514 540.987 191.351 538.843 191.769 536.393 191.769 534.099 191.769 532.085 191.385 530.351 190.617 528.617 189.85 527.271 188.728 526.314 187.253 525.356 185.778 524.877 184.04 524.877 182.039 524.877 180.538 525.136 179.235 525.654 178.131 526.171 177.027 526.848 176.117 527.685 175.401 528.522 174.685 529.579 174.033 530.855 173.447L530.804 173.11C527.094 171.506 525.24 168.754 525.24 164.855 525.24 163.078 525.727 161.491 526.702 160.093 527.677 158.696 529.065 157.6 530.868 156.807 532.671 156.013 534.668 155.616 536.859 155.616ZM508.723 155.616 510.146 155.616C510.042 157.272 509.991 159.567 509.991 162.5L509.991 184.601C509.991 185.601 510.047 186.356 510.159 186.865 510.271 187.374 510.469 187.788 510.754 188.107 511.039 188.426 511.448 188.676 511.983 188.858 512.518 189.039 513.191 189.177 514.002 189.272 514.813 189.367 515.882 189.431 517.211 189.466L517.211 191.355 498.086 191.355 498.086 189.466C500.001 189.38 501.369 189.263 502.188 189.116 503.008 188.97 503.633 188.75 504.064 188.457 504.496 188.163 504.811 187.749 505.009 187.214 505.207 186.68 505.307 185.808 505.307 184.601L505.307 163.613C505.307 162.923 505.186 162.418 504.944 162.099 504.703 161.78 504.349 161.62 503.883 161.62 503.331 161.62 502.546 161.905 501.528 162.474 500.51 163.043 499.251 163.828 497.75 164.829L496.611 162.836Z" fill-rule="evenodd"/><text fill="#000000" fill-opacity="0" font-family="Arial,Arial_MSFontService,sans-serif" font-size="36.1528" x="496.611" y="187.25">183</text><path d="M590.391 158.178C588.941 158.178 587.751 158.653 586.819 159.602 585.888 160.55 585.422 161.793 585.422 163.328 585.422 164.881 585.888 166.132 586.819 167.081 587.751 168.029 588.941 168.504 590.391 168.504 591.874 168.504 593.082 168.025 594.014 167.068 594.945 166.11 595.411 164.864 595.411 163.328 595.411 161.81 594.945 160.572 594.014 159.614 593.082 158.657 591.874 158.178 590.391 158.178ZM616.683 155.616C618.253 155.616 619.703 155.698 621.031 155.862 622.36 156.026 623.878 156.332 625.586 156.781L625.586 163.949 623.024 163.949C622.472 161.948 621.674 160.438 620.63 159.42 619.586 158.402 618.098 157.894 616.166 157.894 614.389 157.894 612.806 158.484 611.417 159.666 610.028 160.848 608.937 162.625 608.143 164.997 607.35 167.37 606.953 170.238 606.953 173.602 606.953 178.709 607.686 182.634 609.153 185.377 610.619 188.12 612.75 189.492 615.545 189.492 616.96 189.492 618.115 189.289 619.013 188.884 619.91 188.478 620.664 187.835 621.277 186.956 621.889 186.076 622.472 184.782 623.024 183.074L625.586 183.074 625.586 190.475C623.964 190.906 622.304 191.23 620.604 191.446 618.905 191.661 617.037 191.769 615.001 191.769 610.619 191.769 607.307 190.285 605.064 187.318 602.821 184.35 601.7 179.925 601.7 174.042 601.7 170.35 602.282 167.115 603.446 164.337 604.611 161.56 606.323 159.412 608.583 157.894 610.843 156.375 613.544 155.616 616.683 155.616ZM590.494 155.616C591.978 155.616 593.302 155.944 594.466 156.6 595.631 157.255 596.537 158.17 597.184 159.343 597.831 160.516 598.154 161.844 598.154 163.328 598.154 164.795 597.813 166.119 597.132 167.301 596.451 168.482 595.506 169.41 594.298 170.083 593.091 170.755 591.736 171.092 590.235 171.092 588.734 171.092 587.41 170.755 586.263 170.083 585.116 169.41 584.231 168.482 583.61 167.301 582.989 166.119 582.679 164.786 582.679 163.302 582.679 161.836 583.011 160.512 583.675 159.33 584.339 158.148 585.266 157.234 586.457 156.587 587.647 155.94 588.993 155.616 590.494 155.616Z" fill-rule="evenodd"/><text fill="#000000" fill-opacity="0" font-family="Arial,Arial_MSFontService,sans-serif" font-size="36.1528" x="582.679" y="187.25">℃</text><text font-family="DengXian,DengXian_MSFontService,sans-serif" font-weight="400" font-size="53" transform="translate(628.671 191)">（后）</text><path d="M416 601 442.286 601" stroke="#000000" stroke-width="4" stroke-linejoin="round" stroke-miterlimit="10" fill="none" fill-rule="evenodd"/><path d="M416 174 442.286 174" stroke="#000000" stroke-width="4" stroke-linejoin="round" stroke-miterlimit="10" fill="none" fill-rule="evenodd"/><path d="M456.027 601.91 487.91 601.91 487.91 605.352 456.027 605.352Z" fill-rule="evenodd"/><text fill="#000000" fill-opacity="0" font-family="Arial,Arial_MSFontService,sans-serif" font-size="3.44189" x="456.027" y="604.922">−</text><path d="M508.723 583.045 510.146 583.045C510.042 584.701 509.991 586.996 509.991 589.929L509.991 612.029C509.991 613.03 510.047 613.785 510.159 614.294 510.271 614.802 510.469 615.217 510.754 615.536 511.039 615.855 511.448 616.105 511.983 616.286 512.518 616.467 513.191 616.605 514.002 616.7 514.813 616.795 515.882 616.86 517.211 616.894L517.211 618.784 498.086 618.784 498.086 616.894C500.001 616.808 501.369 616.692 502.188 616.545 503.008 616.398 503.633 616.178 504.064 615.885 504.496 615.592 504.811 615.178 505.009 614.643 505.207 614.108 505.307 613.237 505.307 612.029L505.307 591.041C505.307 590.351 505.186 589.847 504.944 589.527 504.703 589.208 504.349 589.049 503.883 589.049 503.331 589.049 502.546 589.333 501.528 589.903 500.51 590.472 499.251 591.257 497.75 592.258L496.611 590.265Z" fill-rule="evenodd"/><text fill="#000000" fill-opacity="0" font-family="Arial,Arial_MSFontService,sans-serif" font-size="35.7388" x="496.611" y="614.316">1</text><path d="M536.049 585.244C534.755 585.244 533.659 585.469 532.762 585.917 531.865 586.366 531.136 586.983 530.575 587.768 530.015 588.553 529.605 589.476 529.346 590.537 529.087 591.598 528.958 592.749 528.958 593.992 528.958 596.562 529.484 598.555 530.536 599.97 531.589 601.384 533.073 602.092 534.988 602.092 535.643 602.092 536.269 602.036 536.864 601.923 537.459 601.811 538.041 601.647 538.611 601.432 539.18 601.216 539.736 600.94 540.28 600.604 540.823 600.267 541.311 599.909 541.742 599.53 541.897 599.392 542.035 599.21 542.156 598.986 542.277 598.762 542.372 598.469 542.441 598.106 542.51 597.744 542.544 597.175 542.544 596.398 542.544 594.035 542.307 592.012 541.833 590.33 541.358 588.648 540.634 587.379 539.659 586.525 538.684 585.671 537.481 585.244 536.049 585.244ZM536.333 583.045C539.956 583.045 542.717 584.296 544.615 586.797 546.512 589.299 547.461 592.896 547.461 597.589 547.461 601.885 546.763 605.607 545.365 608.755 543.968 611.904 542.009 614.354 539.491 616.105 536.972 617.856 534.03 618.887 530.666 619.198L529.605 617.774 529.605 616.506C532.02 616.506 534.112 615.971 535.88 614.902 537.649 613.832 539.072 612.249 540.151 610.153 541.229 608.057 541.949 605.309 542.311 601.91L542.053 601.807C540.603 602.842 539.176 603.601 537.77 604.084 536.364 604.567 534.841 604.809 533.202 604.809 531.253 604.809 529.592 604.382 528.22 603.528 526.849 602.674 525.818 601.475 525.128 599.931 524.438 598.387 524.093 596.579 524.093 594.509 524.093 592.956 524.351 591.486 524.869 590.097 525.387 588.708 526.154 587.492 527.172 586.448 528.19 585.404 529.463 584.576 530.989 583.963 532.516 583.351 534.298 583.045 536.333 583.045Z" fill-rule="evenodd"/><text fill="#000000" fill-opacity="0" font-family="Arial,Arial_MSFontService,sans-serif" font-size="36.1528" x="524.093" y="614.678">9</text><path d="M566.869 600.151C566.023 600.151 565.208 600.246 564.423 600.435 563.638 600.625 562.9 600.901 562.21 601.263 561.52 601.626 560.847 602.083 560.192 602.635 559.985 602.825 559.829 603.023 559.726 603.23 559.553 603.558 559.441 603.964 559.39 604.447 559.338 604.93 559.312 605.741 559.312 606.879 559.312 610.174 559.864 612.685 560.968 614.41 562.072 616.135 563.746 616.998 565.989 616.998 567.283 616.998 568.37 616.774 569.249 616.325 570.129 615.876 570.841 615.26 571.384 614.475 571.928 613.69 572.316 612.767 572.549 611.706 572.782 610.645 572.898 609.493 572.898 608.251 572.898 605.697 572.372 603.709 571.32 602.286 570.267 600.862 568.784 600.151 566.869 600.151ZM573.519 583.045 574.58 584.468 574.58 585.736C571.924 585.736 569.569 586.305 567.516 587.444 565.462 588.583 563.759 590.256 562.404 592.465 561.05 594.673 560.097 597.295 559.545 600.332L559.804 600.435C561.253 599.4 562.68 598.641 564.087 598.158 565.493 597.675 567.015 597.433 568.654 597.433 570.604 597.433 572.264 597.86 573.636 598.714 575.007 599.568 576.038 600.767 576.728 602.312 577.419 603.856 577.764 605.663 577.764 607.733 577.764 609.976 577.332 611.956 576.47 613.672 575.607 615.389 574.274 616.739 572.471 617.722 570.668 618.706 568.447 619.198 565.807 619.198 562.029 619.198 559.178 618.024 557.255 615.678 555.331 613.332 554.369 609.873 554.369 605.301 554.369 602.23 554.852 599.357 555.818 596.683 556.784 594.009 558.156 591.675 559.933 589.683 561.71 587.69 563.772 586.12 566.118 584.973 568.464 583.825 570.932 583.183 573.519 583.045Z" fill-rule="evenodd"/><text fill="#000000" fill-opacity="0" font-family="Arial,Arial_MSFontService,sans-serif" font-size="36.1528" x="554.369" y="614.678">6</text><path d="M590.391 585.607C588.941 585.607 587.751 586.081 586.819 587.03 585.888 587.979 585.422 589.221 585.422 590.757 585.422 592.309 585.888 593.56 586.819 594.509 587.751 595.458 588.941 595.932 590.391 595.932 591.874 595.932 593.082 595.454 594.014 594.496 594.945 593.539 595.411 592.292 595.411 590.757 595.411 589.238 594.945 588.001 594.014 587.043 593.082 586.086 591.874 585.607 590.391 585.607ZM616.683 583.045C618.253 583.045 619.703 583.127 621.031 583.291 622.36 583.454 623.878 583.761 625.586 584.209L625.586 591.378 623.024 591.378C622.472 589.376 621.674 587.867 620.63 586.849 619.586 585.831 618.098 585.322 616.166 585.322 614.389 585.322 612.806 585.913 611.417 587.095 610.028 588.277 608.937 590.054 608.143 592.426 607.35 594.798 606.953 597.666 606.953 601.031 606.953 606.137 607.686 610.062 609.153 612.805 610.619 615.549 612.75 616.92 615.545 616.92 616.96 616.92 618.115 616.718 619.013 616.312 619.91 615.907 620.664 615.264 621.277 614.384 621.889 613.504 622.472 612.21 623.024 610.502L625.586 610.502 625.586 617.904C623.964 618.335 622.304 618.658 620.604 618.874 618.905 619.09 617.037 619.198 615.001 619.198 610.619 619.198 607.307 617.714 605.064 614.746 602.821 611.779 601.7 607.354 601.7 601.471 601.7 597.778 602.282 594.544 603.446 591.766 604.611 588.988 606.323 586.84 608.583 585.322 610.843 583.804 613.544 583.045 616.683 583.045ZM590.494 583.045C591.978 583.045 593.302 583.373 594.466 584.028 595.631 584.684 596.537 585.598 597.184 586.771 597.831 587.944 598.154 589.273 598.154 590.757 598.154 592.223 597.813 593.547 597.132 594.729 596.451 595.911 595.506 596.838 594.298 597.511 593.091 598.184 591.736 598.52 590.235 598.52 588.734 598.52 587.41 598.184 586.263 597.511 585.116 596.838 584.231 595.911 583.61 594.729 582.989 593.547 582.679 592.214 582.679 590.731 582.679 589.264 583.011 587.94 583.675 586.758 584.339 585.577 585.266 584.662 586.457 584.015 587.647 583.368 588.993 583.045 590.494 583.045Z" fill-rule="evenodd"/><text fill="#000000" fill-opacity="0" font-family="Arial,Arial_MSFontService,sans-serif" font-size="36.1528" x="582.679" y="614.678">℃</text><text font-family="DengXian,DengXian_MSFontService,sans-serif" font-weight="400" font-size="53" transform="translate(628.671 619)">（先）<tspan x="-345.088" y="-428">氧气</tspan><tspan x="-345.088" y="0">氮气</tspan><tspan x="-533.357" y="-527">沸点：</tspan></text></g></svg>