<svg width="1280" height="720" xmlns="http://www.w3.org/2000/svg" xmlns:xlink="http://www.w3.org/1999/xlink" overflow="hidden"><defs><clipPath id="clip0"><rect x="0" y="0" width="1280" height="720"/></clipPath><clipPath id="clip1"><rect x="-140" y="0" width="906" height="720"/></clipPath><clipPath id="clip2"><rect x="-140" y="0" width="906" height="720"/></clipPath><clipPath id="clip3"><rect x="-140" y="0" width="906" height="720"/></clipPath><clipPath id="clip4"><rect x="-140" y="0" width="906" height="720"/></clipPath><clipPath id="clip5"><rect x="-140" y="0" width="906" height="720"/></clipPath><clipPath id="clip6"><rect x="-140" y="0" width="906" height="720"/></clipPath><clipPath id="clip7"><rect x="-140" y="0" width="906" height="720"/></clipPath></defs><g clip-path="url(#clip0)"><rect x="0" y="0" width="1280" height="720" fill="#FFFFFF"/><g clip-path="url(#clip1)"><path d="M612.524 386.176C598.067 551.414 452.396 673.647 287.157 659.191 121.919 644.734-0.313758 499.063 14.1427 333.824 28.5992 168.586 174.271 46.3533 339.509 60.8098 358.322 62.4557 376.937 65.8723 395.108 71.0141L313.333 360Z" stroke="#000000" stroke-width="2" stroke-linejoin="round" stroke-miterlimit="10" fill="none" fill-rule="evenodd"/></g><g clip-path="url(#clip2)"><path d="M395.108 71.0139C527.031 108.344 616.927 230.276 613.577 367.338L313.333 360Z" stroke="#000000" stroke-width="2" stroke-linejoin="round" stroke-miterlimit="10" fill="none" fill-rule="evenodd"/></g><g clip-path="url(#clip3)"><path d="M613.577 367.338C613.424 373.626 613.072 379.909 612.524 386.176L313.333 360Z" stroke="#000000" stroke-width="2" stroke-linejoin="round" stroke-miterlimit="10" fill="none" fill-rule="evenodd"/></g><g clip-path="url(#clip4)"><text font-family="DengXian,DengXian_MSFontService,sans-serif" font-weight="400" font-size="72" transform="translate(126.319 355)">氮气</text></g><g clip-path="url(#clip5)"><text font-family="DengXian,DengXian_MSFontService,sans-serif" font-weight="400" font-size="72" transform="translate(142.386 452)">78%</text></g><g clip-path="url(#clip6)"><text font-family="DengXian,DengXian_MSFontService,sans-serif" font-weight="400" font-size="72" transform="translate(388.985 214)">氧气</text></g><g clip-path="url(#clip7)"><text font-family="DengXian,DengXian_MSFontService,sans-serif" font-weight="400" font-size="72" transform="translate(405.051 311)">21%</text></g><path d="M704 519C682.185 519 664.5 504.537 664.5 486.696L664.5 405.304C664.5 387.463 646.815 373 625 373 646.815 373 664.5 358.537 664.5 340.696L664.5 259.304C664.5 241.463 682.185 227 704 227" stroke="#000000" stroke-width="4" stroke-linejoin="round" stroke-miterlimit="10" fill="none" fill-rule="evenodd"/><text font-family="DengXian,DengXian_MSFontService,sans-serif" font-weight="400" font-size="72" transform="translate(696.267 314)">0.<tspan x="53.8333" y="0">94</tspan>%<tspan x="239.333" y="0">稀有气体</tspan><tspan x="0" y="87">0</tspan>.<tspan x="53.8333" y="87">03</tspan>%<tspan x="239.333" y="87">二氧化碳</tspan><tspan x="0" y="173">0</tspan>.<tspan x="53.8333" y="173">03</tspan>%<tspan x="239.333" y="173">其他杂质</tspan></text></g></svg>