<svg width="1280" height="720" xmlns="http://www.w3.org/2000/svg" xmlns:xlink="http://www.w3.org/1999/xlink" overflow="hidden"><defs><clipPath id="clip0"><rect x="0" y="0" width="1280" height="720"/></clipPath></defs><g clip-path="url(#clip0)"><rect x="0" y="0" width="1280" height="720" fill="#FFFFFF"/><path d="M2-3.25181e-07 2.0001 641.755-1.9999 641.755-2 3.25181e-07ZM8.72766 630.762 0.000104754 645.724-8.72746 630.762C-9.28402 629.808-8.96174 628.583-8.00764 628.027-7.05354 627.47-5.8289 627.792-5.27234 628.747L1.72766 640.747-1.72745 640.747 5.27254 628.747C5.8291 627.792 7.05374 627.47 8.00784 628.027 8.96195 628.583 9.28422 629.808 8.72766 630.762Z" transform="matrix(1 0 0 -1 429 682.714)"/><path d="M464.361 174.482 496.244 174.482 496.244 177.924 464.361 177.924Z" fill-rule="evenodd"/><text fill="#000000" fill-opacity="0" font-family="Arial,Arial_MSFontService,sans-serif" font-size="3.44189" x="464.361" y="177.494">−</text><path d="M545.011 174.12C543.735 174.12 542.661 174.318 541.79 174.715 540.918 175.112 540.211 175.646 539.667 176.319 539.124 176.992 538.736 177.781 538.503 178.687 538.27 179.593 538.154 180.563 538.154 181.599 538.154 182.72 538.283 183.768 538.542 184.743 538.801 185.718 539.21 186.559 539.771 187.266 540.332 187.973 541.052 188.534 541.932 188.948 542.812 189.362 543.881 189.569 545.141 189.569 546.556 189.569 547.768 189.28 548.777 188.702 549.786 188.124 550.554 187.266 551.08 186.127 551.606 184.989 551.869 183.643 551.869 182.09 551.869 180.434 551.585 179.006 551.015 177.807 550.446 176.608 549.644 175.694 548.609 175.064 547.573 174.434 546.374 174.12 545.011 174.12ZM545.141 157.816C542.967 157.816 541.306 158.407 540.159 159.589 539.012 160.77 538.438 162.448 538.438 164.622 538.438 165.64 538.559 166.597 538.801 167.495 539.042 168.392 539.43 169.168 539.965 169.824 540.5 170.479 541.194 171.001 542.048 171.389 542.902 171.778 543.95 171.972 545.193 171.972 546.625 171.972 547.828 171.691 548.803 171.131 549.777 170.57 550.502 169.75 550.977 168.672 551.451 167.594 551.688 166.347 551.688 164.933 551.688 163.38 551.408 162.064 550.847 160.986 550.286 159.908 549.514 159.11 548.531 158.592 547.548 158.075 546.418 157.816 545.141 157.816ZM574.115 155.616C576.065 155.616 577.773 155.918 579.239 156.522 580.705 157.126 581.827 157.993 582.603 159.123 583.38 160.253 583.768 161.603 583.768 163.173 583.768 164.639 583.474 165.929 582.888 167.042 582.301 168.155 581.478 169.125 580.417 169.953 579.355 170.781 577.98 171.592 576.289 172.386L576.289 172.619C577.341 172.808 578.355 173.132 579.33 173.589 580.304 174.046 581.171 174.637 581.93 175.362 582.69 176.086 583.298 176.953 583.755 177.963 584.212 178.972 584.441 180.124 584.441 181.417 584.441 183.419 584.005 185.196 583.134 186.749 582.263 188.301 580.93 189.526 579.135 190.423 577.341 191.32 575.159 191.769 572.588 191.769 571.104 191.769 569.504 191.601 567.788 191.264 566.071 190.928 564.497 190.484 563.065 189.932L563.065 184.445 566.17 184.445C566.774 186.24 567.572 187.542 568.564 188.353 569.556 189.164 570.906 189.569 572.614 189.569 574.857 189.569 576.552 188.957 577.699 187.732 578.846 186.507 579.42 184.695 579.42 182.297 579.42 179.778 578.661 177.855 577.143 176.526 575.625 175.198 573.399 174.534 570.466 174.534L568.137 174.534 568.137 172.256C570.466 172.118 572.429 171.67 574.024 170.911 575.62 170.152 576.806 169.177 577.583 167.986 578.359 166.796 578.747 165.459 578.747 163.975 578.747 162.06 578.238 160.585 577.22 159.55 576.203 158.515 574.719 157.997 572.769 157.997 571.148 157.997 569.828 158.437 568.81 159.317 567.792 160.197 567.041 161.542 566.558 163.354L563.453 163.354 563.453 158.437C565.454 157.488 567.326 156.781 569.069 156.315 570.811 155.849 572.493 155.616 574.115 155.616ZM545.193 155.616C547.677 155.616 549.765 155.966 551.455 156.664 553.146 157.363 554.418 158.372 555.272 159.692 556.126 161.012 556.553 162.595 556.553 164.441 556.553 166.339 556.088 167.973 555.156 169.345 554.224 170.717 552.784 171.834 550.834 172.696L550.886 173.033C552.836 173.792 554.311 174.9 555.311 176.358 556.312 177.816 556.812 179.571 556.812 181.624 556.812 183.643 556.329 185.42 555.363 186.956 554.397 188.491 552.995 189.677 551.158 190.514 549.32 191.351 547.177 191.769 544.727 191.769 542.432 191.769 540.418 191.385 538.684 190.617 536.95 189.85 535.604 188.728 534.647 187.253 533.689 185.778 533.211 184.04 533.211 182.039 533.211 180.538 533.469 179.235 533.987 178.131 534.505 177.027 535.182 176.117 536.019 175.401 536.855 174.685 537.912 174.033 539.189 173.447L539.137 173.11C535.428 171.506 533.573 168.754 533.573 164.855 533.573 163.078 534.06 161.491 535.035 160.093 536.01 158.696 537.399 157.6 539.202 156.807 541.005 156.013 543.002 155.616 545.193 155.616ZM517.056 155.616 518.479 155.616C518.376 157.272 518.324 159.567 518.324 162.5L518.324 184.601C518.324 185.601 518.38 186.356 518.492 186.865 518.604 187.374 518.803 187.788 519.087 188.107 519.372 188.426 519.782 188.676 520.317 188.858 520.851 189.039 521.524 189.177 522.335 189.272 523.146 189.367 524.216 189.431 525.544 189.466L525.544 191.355 506.42 191.355 506.42 189.466C508.335 189.38 509.702 189.263 510.521 189.116 511.341 188.97 511.966 188.75 512.398 188.457 512.829 188.163 513.144 187.749 513.342 187.214 513.541 186.68 513.64 185.808 513.64 184.601L513.64 163.613C513.64 162.923 513.519 162.418 513.278 162.099 513.036 161.78 512.682 161.62 512.217 161.62 511.664 161.62 510.879 161.905 509.862 162.474 508.844 163.043 507.584 163.828 506.083 164.829L504.945 162.836Z" fill-rule="evenodd"/><text fill="#000000" fill-opacity="0" font-family="Arial,Arial_MSFontService,sans-serif" font-size="36.1528" x="504.945" y="187.25">183</text><path d="M598.724 158.178C597.275 158.178 596.084 158.653 595.153 159.602 594.221 160.55 593.755 161.793 593.755 163.328 593.755 164.881 594.221 166.132 595.153 167.081 596.084 168.029 597.275 168.504 598.724 168.504 600.208 168.504 601.415 168.025 602.347 167.068 603.279 166.11 603.744 164.864 603.744 163.328 603.744 161.81 603.279 160.572 602.347 159.614 601.415 158.657 600.208 158.178 598.724 158.178ZM625.017 155.616C626.587 155.616 628.036 155.698 629.365 155.862 630.693 156.026 632.211 156.332 633.919 156.781L633.919 163.949 631.357 163.949C630.805 161.948 630.007 160.438 628.963 159.42 627.92 158.402 626.432 157.894 624.499 157.894 622.722 157.894 621.139 158.484 619.75 159.666 618.362 160.848 617.27 162.625 616.477 164.997 615.683 167.37 615.286 170.238 615.286 173.602 615.286 178.709 616.02 182.634 617.486 185.377 618.953 188.12 621.083 189.492 623.878 189.492 625.293 189.492 626.449 189.289 627.346 188.884 628.243 188.478 628.998 187.835 629.61 186.956 630.223 186.076 630.805 184.782 631.357 183.074L633.919 183.074 633.919 190.475C632.297 190.906 630.637 191.23 628.938 191.446 627.238 191.661 625.371 191.769 623.335 191.769 618.953 191.769 615.64 190.285 613.397 187.318 611.154 184.35 610.033 179.925 610.033 174.042 610.033 170.35 610.615 167.115 611.78 164.337 612.944 161.56 614.657 159.412 616.917 157.894 619.177 156.375 621.877 155.616 625.017 155.616ZM598.827 155.616C600.311 155.616 601.635 155.944 602.8 156.6 603.964 157.255 604.87 158.17 605.517 159.343 606.164 160.516 606.488 161.844 606.488 163.328 606.488 164.795 606.147 166.119 605.465 167.301 604.784 168.482 603.839 169.41 602.632 170.083 601.424 170.755 600.07 171.092 598.569 171.092 597.068 171.092 595.743 170.755 594.596 170.083 593.449 169.41 592.565 168.482 591.944 167.301 591.323 166.119 591.012 164.786 591.012 163.302 591.012 161.836 591.344 160.512 592.008 159.33 592.673 158.148 593.6 157.234 594.79 156.587 595.981 155.94 597.326 155.616 598.827 155.616Z" fill-rule="evenodd"/><text fill="#000000" fill-opacity="0" font-family="Arial,Arial_MSFontService,sans-serif" font-size="36.1528" x="591.012" y="187.25">℃</text><path d="M416 601 442.286 601" stroke="#000000" stroke-width="4" stroke-linejoin="round" stroke-miterlimit="10" fill="none" fill-rule="evenodd"/><path d="M416 174 442.286 174" stroke="#000000" stroke-width="4" stroke-linejoin="round" stroke-miterlimit="10" fill="none" fill-rule="evenodd"/><path d="M464.361 601.91 496.244 601.91 496.244 605.352 464.361 605.352Z" fill-rule="evenodd"/><text fill="#000000" fill-opacity="0" font-family="Arial,Arial_MSFontService,sans-serif" font-size="3.44189" x="464.361" y="604.922">−</text><path d="M574.011 601.548C572.735 601.548 571.661 601.747 570.79 602.143 569.918 602.54 569.211 603.075 568.667 603.748 568.124 604.421 567.736 605.21 567.503 606.116 567.27 607.022 567.154 607.992 567.154 609.027 567.154 610.149 567.283 611.197 567.542 612.171 567.801 613.146 568.21 613.987 568.771 614.695 569.332 615.402 570.052 615.963 570.932 616.377 571.812 616.791 572.881 616.998 574.141 616.998 575.556 616.998 576.768 616.709 577.777 616.131 578.786 615.553 579.554 614.695 580.08 613.556 580.606 612.417 580.869 611.072 580.869 609.519 580.869 607.863 580.585 606.435 580.015 605.236 579.446 604.037 578.644 603.122 577.609 602.493 576.573 601.863 575.374 601.548 574.011 601.548ZM574.141 585.244C571.967 585.244 570.306 585.835 569.159 587.017 568.012 588.199 567.438 589.877 567.438 592.051 567.438 593.068 567.559 594.026 567.801 594.923 568.042 595.82 568.43 596.597 568.965 597.252 569.5 597.908 570.194 598.43 571.048 598.818 571.902 599.206 572.95 599.4 574.193 599.4 575.625 599.4 576.828 599.12 577.803 598.559 578.777 597.998 579.502 597.179 579.977 596.101 580.451 595.022 580.688 593.776 580.688 592.361 580.688 590.808 580.408 589.493 579.847 588.415 579.286 587.336 578.514 586.538 577.531 586.021 576.548 585.503 575.418 585.244 574.141 585.244ZM574.193 583.045C576.677 583.045 578.765 583.394 580.455 584.093 582.146 584.792 583.418 585.801 584.272 587.121 585.126 588.44 585.553 590.023 585.553 591.869 585.553 593.767 585.088 595.402 584.156 596.773 583.224 598.145 581.784 599.262 579.834 600.125L579.886 600.461C581.836 601.22 583.311 602.329 584.311 603.787 585.312 605.245 585.812 607 585.812 609.053 585.812 611.072 585.329 612.849 584.363 614.384 583.397 615.92 581.995 617.106 580.158 617.942 578.32 618.779 576.177 619.198 573.727 619.198 571.432 619.198 569.418 618.814 567.684 618.046 565.95 617.278 564.604 616.157 563.647 614.682 562.689 613.207 562.211 611.468 562.211 609.467 562.211 607.966 562.469 606.664 562.987 605.559 563.505 604.455 564.182 603.545 565.019 602.829 565.855 602.113 566.912 601.462 568.189 600.875L568.137 600.539C564.428 598.934 562.573 596.183 562.573 592.284 562.573 590.506 563.06 588.919 564.035 587.522 565.01 586.124 566.399 585.029 568.202 584.235 570.005 583.442 572.002 583.045 574.193 583.045ZM547.056 583.045 548.479 583.045C548.376 584.701 548.324 586.996 548.324 589.929L548.324 612.029C548.324 613.03 548.38 613.785 548.492 614.294 548.604 614.802 548.803 615.217 549.087 615.536 549.372 615.855 549.782 616.105 550.317 616.286 550.851 616.467 551.524 616.605 552.335 616.7 553.146 616.795 554.216 616.86 555.544 616.894L555.544 618.784 536.42 618.784 536.42 616.894C538.335 616.808 539.702 616.692 540.521 616.545 541.341 616.398 541.966 616.178 542.398 615.885 542.829 615.592 543.144 615.178 543.342 614.643 543.541 614.108 543.64 613.237 543.64 612.029L543.64 591.041C543.64 590.351 543.519 589.847 543.278 589.527 543.036 589.208 542.682 589.049 542.217 589.049 541.664 589.049 540.879 589.333 539.862 589.903 538.844 590.472 537.584 591.257 536.083 592.258L534.945 590.265ZM515.219 583.045C518.427 583.045 520.851 583.748 522.49 585.154 524.129 586.56 524.949 588.6 524.949 591.274 524.949 592.189 524.858 593.03 524.677 593.797 524.496 594.565 524.211 595.324 523.823 596.075 523.435 596.825 522.913 597.632 522.258 598.494 521.602 599.357 520.877 600.233 520.084 601.121 519.29 602.01 517.919 603.489 515.969 605.559 512.691 609.027 510.284 612.055 508.749 614.643L518.505 614.643C519.35 614.643 520.032 614.591 520.55 614.488 521.067 614.384 521.481 614.212 521.792 613.97 522.102 613.729 522.348 613.414 522.529 613.025 522.71 612.637 522.939 612.038 523.215 611.227L525.415 611.227 524.975 618.784 503.676 618.784 503.676 617.541C504.418 615.73 505.419 613.875 506.678 611.977 507.938 610.08 509.724 607.845 512.035 605.275 514.037 603.066 515.477 601.393 516.357 600.254 517.323 599.012 518.044 597.938 518.518 597.032 518.992 596.127 519.333 595.273 519.54 594.47 519.747 593.668 519.851 592.861 519.851 592.051 519.851 590.757 519.644 589.614 519.23 588.622 518.816 587.63 518.182 586.849 517.328 586.28 516.474 585.71 515.4 585.426 514.106 585.426 510.879 585.426 508.706 587.22 507.584 590.808L504.453 590.808 504.453 585.84C506.54 584.856 508.494 584.145 510.314 583.705 512.135 583.265 513.769 583.045 515.219 583.045Z" fill-rule="evenodd"/><text fill="#000000" fill-opacity="0" font-family="Arial,Arial_MSFontService,sans-serif" font-size="36.1528" x="503.676" y="614.678">218</text><path d="M598.724 585.607C597.275 585.607 596.084 586.081 595.153 587.03 594.221 587.979 593.755 589.221 593.755 590.757 593.755 592.309 594.221 593.56 595.153 594.509 596.084 595.458 597.275 595.932 598.724 595.932 600.208 595.932 601.415 595.454 602.347 594.496 603.279 593.539 603.744 592.292 603.744 590.757 603.744 589.238 603.279 588.001 602.347 587.043 601.415 586.086 600.208 585.607 598.724 585.607ZM625.017 583.045C626.587 583.045 628.036 583.127 629.365 583.291 630.693 583.454 632.211 583.761 633.919 584.209L633.919 591.378 631.357 591.378C630.805 589.376 630.007 587.867 628.963 586.849 627.92 585.831 626.432 585.322 624.499 585.322 622.722 585.322 621.139 585.913 619.75 587.095 618.362 588.277 617.27 590.054 616.477 592.426 615.683 594.798 615.286 597.666 615.286 601.031 615.286 606.137 616.02 610.062 617.486 612.805 618.953 615.549 621.083 616.92 623.878 616.92 625.293 616.92 626.449 616.718 627.346 616.312 628.243 615.907 628.998 615.264 629.61 614.384 630.223 613.504 630.805 612.21 631.357 610.502L633.919 610.502 633.919 617.904C632.297 618.335 630.637 618.658 628.938 618.874 627.238 619.09 625.371 619.198 623.335 619.198 618.953 619.198 615.64 617.714 613.397 614.746 611.154 611.779 610.033 607.354 610.033 601.471 610.033 597.778 610.615 594.544 611.78 591.766 612.944 588.988 614.657 586.84 616.917 585.322 619.177 583.804 621.877 583.045 625.017 583.045ZM598.827 583.045C600.311 583.045 601.635 583.373 602.8 584.028 603.964 584.684 604.87 585.598 605.517 586.771 606.164 587.944 606.488 589.273 606.488 590.757 606.488 592.223 606.147 593.547 605.465 594.729 604.784 595.911 603.839 596.838 602.632 597.511 601.424 598.184 600.07 598.52 598.569 598.52 597.068 598.52 595.743 598.184 594.596 597.511 593.449 596.838 592.565 595.911 591.944 594.729 591.323 593.547 591.012 592.214 591.012 590.731 591.012 589.264 591.344 587.94 592.008 586.758 592.673 585.577 593.6 584.662 594.79 584.015 595.981 583.368 597.326 583.045 598.827 583.045Z" fill-rule="evenodd"/><text fill="#000000" fill-opacity="0" font-family="Arial,Arial_MSFontService,sans-serif" font-size="36.1528" x="591.012" y="614.678">℃</text><text font-family="DengXian,DengXian_MSFontService,sans-serif" font-weight="400" font-size="53" transform="translate(283.584 191)">沸点<tspan x="0" y="428">熔点</tspan></text><path d="M274 638C252.185 638 234.5 623.537 234.5 605.696L234.5 419.804C234.5 401.963 216.815 387.5 195 387.5 216.815 387.5 234.5 373.037 234.5 355.196L234.5 169.304C234.5 151.463 252.185 137 274 137" stroke="#000000" stroke-width="4" stroke-linejoin="round" stroke-miterlimit="10" fill="none" fill-rule="evenodd"/><text font-family="DengXian,DengXian_MSFontService,sans-serif" font-weight="400" font-size="53" transform="translate(17.3958 405)">淡蓝色</text></g></svg>